G04 #@! TF.GenerationSoftware,KiCad,Pcbnew,(5.1.0-0)*
G04 #@! TF.CreationDate,2019-03-25T02:14:44+01:00*
G04 #@! TF.ProjectId,adapter,61646170-7465-4722-9e6b-696361645f70,rev?*
G04 #@! TF.SameCoordinates,Original*
G04 #@! TF.FileFunction,Soldermask,Top*
G04 #@! TF.FilePolarity,Negative*
%FSLAX46Y46*%
G04 Gerber Fmt 4.6, Leading zero omitted, Abs format (unit mm)*
G04 Created by KiCad (PCBNEW (5.1.0-0)) date 2019-03-25 02:14:44*
%MOMM*%
%LPD*%
G04 APERTURE LIST*
%ADD10C,0.100000*%
G04 APERTURE END LIST*
D10*
G36*
X84890443Y-54255519D02*
G01*
X84956627Y-54262037D01*
X85126466Y-54313557D01*
X85282991Y-54397222D01*
X85318729Y-54426552D01*
X85420186Y-54509814D01*
X85503448Y-54611271D01*
X85532778Y-54647009D01*
X85616443Y-54803534D01*
X85667963Y-54973373D01*
X85685359Y-55150000D01*
X85667963Y-55326627D01*
X85616443Y-55496466D01*
X85532778Y-55652991D01*
X85503448Y-55688729D01*
X85420186Y-55790186D01*
X85334754Y-55860297D01*
X85282991Y-55902778D01*
X85126466Y-55986443D01*
X84956627Y-56037963D01*
X84890442Y-56044482D01*
X84824260Y-56051000D01*
X83235740Y-56051000D01*
X83169558Y-56044482D01*
X83103373Y-56037963D01*
X82933534Y-55986443D01*
X82777009Y-55902778D01*
X82725246Y-55860297D01*
X82639814Y-55790186D01*
X82556552Y-55688729D01*
X82527222Y-55652991D01*
X82443557Y-55496466D01*
X82392037Y-55326627D01*
X82374641Y-55150000D01*
X82392037Y-54973373D01*
X82443557Y-54803534D01*
X82527222Y-54647009D01*
X82556552Y-54611271D01*
X82639814Y-54509814D01*
X82741271Y-54426552D01*
X82777009Y-54397222D01*
X82933534Y-54313557D01*
X83103373Y-54262037D01*
X83169557Y-54255519D01*
X83235740Y-54249000D01*
X84824260Y-54249000D01*
X84890443Y-54255519D01*
X84890443Y-54255519D01*
G37*
G36*
X73784228Y-54223703D02*
G01*
X73939100Y-54287853D01*
X74078481Y-54380985D01*
X74197015Y-54499519D01*
X74290147Y-54638900D01*
X74354297Y-54793772D01*
X74387000Y-54958184D01*
X74387000Y-55125816D01*
X74354297Y-55290228D01*
X74290147Y-55445100D01*
X74197015Y-55584481D01*
X74078481Y-55703015D01*
X73939100Y-55796147D01*
X73784228Y-55860297D01*
X73619816Y-55893000D01*
X73452184Y-55893000D01*
X73287772Y-55860297D01*
X73132900Y-55796147D01*
X72993519Y-55703015D01*
X72874985Y-55584481D01*
X72781853Y-55445100D01*
X72717703Y-55290228D01*
X72685000Y-55125816D01*
X72685000Y-54958184D01*
X72717703Y-54793772D01*
X72781853Y-54638900D01*
X72874985Y-54499519D01*
X72993519Y-54380985D01*
X73132900Y-54287853D01*
X73287772Y-54223703D01*
X73452184Y-54191000D01*
X73619816Y-54191000D01*
X73784228Y-54223703D01*
X73784228Y-54223703D01*
G37*
G36*
X71244228Y-54223703D02*
G01*
X71399100Y-54287853D01*
X71538481Y-54380985D01*
X71657015Y-54499519D01*
X71750147Y-54638900D01*
X71814297Y-54793772D01*
X71847000Y-54958184D01*
X71847000Y-55125816D01*
X71814297Y-55290228D01*
X71750147Y-55445100D01*
X71657015Y-55584481D01*
X71538481Y-55703015D01*
X71399100Y-55796147D01*
X71244228Y-55860297D01*
X71079816Y-55893000D01*
X70912184Y-55893000D01*
X70747772Y-55860297D01*
X70592900Y-55796147D01*
X70453519Y-55703015D01*
X70334985Y-55584481D01*
X70241853Y-55445100D01*
X70177703Y-55290228D01*
X70145000Y-55125816D01*
X70145000Y-54958184D01*
X70177703Y-54793772D01*
X70241853Y-54638900D01*
X70334985Y-54499519D01*
X70453519Y-54380985D01*
X70592900Y-54287853D01*
X70747772Y-54223703D01*
X70912184Y-54191000D01*
X71079816Y-54191000D01*
X71244228Y-54223703D01*
X71244228Y-54223703D01*
G37*
G36*
X68704228Y-54223703D02*
G01*
X68859100Y-54287853D01*
X68998481Y-54380985D01*
X69117015Y-54499519D01*
X69210147Y-54638900D01*
X69274297Y-54793772D01*
X69307000Y-54958184D01*
X69307000Y-55125816D01*
X69274297Y-55290228D01*
X69210147Y-55445100D01*
X69117015Y-55584481D01*
X68998481Y-55703015D01*
X68859100Y-55796147D01*
X68704228Y-55860297D01*
X68539816Y-55893000D01*
X68372184Y-55893000D01*
X68207772Y-55860297D01*
X68052900Y-55796147D01*
X67913519Y-55703015D01*
X67794985Y-55584481D01*
X67701853Y-55445100D01*
X67637703Y-55290228D01*
X67605000Y-55125816D01*
X67605000Y-54958184D01*
X67637703Y-54793772D01*
X67701853Y-54638900D01*
X67794985Y-54499519D01*
X67913519Y-54380985D01*
X68052900Y-54287853D01*
X68207772Y-54223703D01*
X68372184Y-54191000D01*
X68539816Y-54191000D01*
X68704228Y-54223703D01*
X68704228Y-54223703D01*
G37*
G36*
X66164228Y-54223703D02*
G01*
X66319100Y-54287853D01*
X66458481Y-54380985D01*
X66577015Y-54499519D01*
X66670147Y-54638900D01*
X66734297Y-54793772D01*
X66767000Y-54958184D01*
X66767000Y-55125816D01*
X66734297Y-55290228D01*
X66670147Y-55445100D01*
X66577015Y-55584481D01*
X66458481Y-55703015D01*
X66319100Y-55796147D01*
X66164228Y-55860297D01*
X65999816Y-55893000D01*
X65832184Y-55893000D01*
X65667772Y-55860297D01*
X65512900Y-55796147D01*
X65373519Y-55703015D01*
X65254985Y-55584481D01*
X65161853Y-55445100D01*
X65097703Y-55290228D01*
X65065000Y-55125816D01*
X65065000Y-54958184D01*
X65097703Y-54793772D01*
X65161853Y-54638900D01*
X65254985Y-54499519D01*
X65373519Y-54380985D01*
X65512900Y-54287853D01*
X65667772Y-54223703D01*
X65832184Y-54191000D01*
X65999816Y-54191000D01*
X66164228Y-54223703D01*
X66164228Y-54223703D01*
G37*
G36*
X63624228Y-54223703D02*
G01*
X63779100Y-54287853D01*
X63918481Y-54380985D01*
X64037015Y-54499519D01*
X64130147Y-54638900D01*
X64194297Y-54793772D01*
X64227000Y-54958184D01*
X64227000Y-55125816D01*
X64194297Y-55290228D01*
X64130147Y-55445100D01*
X64037015Y-55584481D01*
X63918481Y-55703015D01*
X63779100Y-55796147D01*
X63624228Y-55860297D01*
X63459816Y-55893000D01*
X63292184Y-55893000D01*
X63127772Y-55860297D01*
X62972900Y-55796147D01*
X62833519Y-55703015D01*
X62714985Y-55584481D01*
X62621853Y-55445100D01*
X62557703Y-55290228D01*
X62525000Y-55125816D01*
X62525000Y-54958184D01*
X62557703Y-54793772D01*
X62621853Y-54638900D01*
X62714985Y-54499519D01*
X62833519Y-54380985D01*
X62972900Y-54287853D01*
X63127772Y-54223703D01*
X63292184Y-54191000D01*
X63459816Y-54191000D01*
X63624228Y-54223703D01*
X63624228Y-54223703D01*
G37*
G36*
X61084228Y-54223703D02*
G01*
X61239100Y-54287853D01*
X61378481Y-54380985D01*
X61497015Y-54499519D01*
X61590147Y-54638900D01*
X61654297Y-54793772D01*
X61687000Y-54958184D01*
X61687000Y-55125816D01*
X61654297Y-55290228D01*
X61590147Y-55445100D01*
X61497015Y-55584481D01*
X61378481Y-55703015D01*
X61239100Y-55796147D01*
X61084228Y-55860297D01*
X60919816Y-55893000D01*
X60752184Y-55893000D01*
X60587772Y-55860297D01*
X60432900Y-55796147D01*
X60293519Y-55703015D01*
X60174985Y-55584481D01*
X60081853Y-55445100D01*
X60017703Y-55290228D01*
X59985000Y-55125816D01*
X59985000Y-54958184D01*
X60017703Y-54793772D01*
X60081853Y-54638900D01*
X60174985Y-54499519D01*
X60293519Y-54380985D01*
X60432900Y-54287853D01*
X60587772Y-54223703D01*
X60752184Y-54191000D01*
X60919816Y-54191000D01*
X61084228Y-54223703D01*
X61084228Y-54223703D01*
G37*
G36*
X58544228Y-54223703D02*
G01*
X58699100Y-54287853D01*
X58838481Y-54380985D01*
X58957015Y-54499519D01*
X59050147Y-54638900D01*
X59114297Y-54793772D01*
X59147000Y-54958184D01*
X59147000Y-55125816D01*
X59114297Y-55290228D01*
X59050147Y-55445100D01*
X58957015Y-55584481D01*
X58838481Y-55703015D01*
X58699100Y-55796147D01*
X58544228Y-55860297D01*
X58379816Y-55893000D01*
X58212184Y-55893000D01*
X58047772Y-55860297D01*
X57892900Y-55796147D01*
X57753519Y-55703015D01*
X57634985Y-55584481D01*
X57541853Y-55445100D01*
X57477703Y-55290228D01*
X57445000Y-55125816D01*
X57445000Y-54958184D01*
X57477703Y-54793772D01*
X57541853Y-54638900D01*
X57634985Y-54499519D01*
X57753519Y-54380985D01*
X57892900Y-54287853D01*
X58047772Y-54223703D01*
X58212184Y-54191000D01*
X58379816Y-54191000D01*
X58544228Y-54223703D01*
X58544228Y-54223703D01*
G37*
G36*
X56004228Y-54223703D02*
G01*
X56159100Y-54287853D01*
X56298481Y-54380985D01*
X56417015Y-54499519D01*
X56510147Y-54638900D01*
X56574297Y-54793772D01*
X56607000Y-54958184D01*
X56607000Y-55125816D01*
X56574297Y-55290228D01*
X56510147Y-55445100D01*
X56417015Y-55584481D01*
X56298481Y-55703015D01*
X56159100Y-55796147D01*
X56004228Y-55860297D01*
X55839816Y-55893000D01*
X55672184Y-55893000D01*
X55507772Y-55860297D01*
X55352900Y-55796147D01*
X55213519Y-55703015D01*
X55094985Y-55584481D01*
X55001853Y-55445100D01*
X54937703Y-55290228D01*
X54905000Y-55125816D01*
X54905000Y-54958184D01*
X54937703Y-54793772D01*
X55001853Y-54638900D01*
X55094985Y-54499519D01*
X55213519Y-54380985D01*
X55352900Y-54287853D01*
X55507772Y-54223703D01*
X55672184Y-54191000D01*
X55839816Y-54191000D01*
X56004228Y-54223703D01*
X56004228Y-54223703D01*
G37*
G36*
X53464228Y-54223703D02*
G01*
X53619100Y-54287853D01*
X53758481Y-54380985D01*
X53877015Y-54499519D01*
X53970147Y-54638900D01*
X54034297Y-54793772D01*
X54067000Y-54958184D01*
X54067000Y-55125816D01*
X54034297Y-55290228D01*
X53970147Y-55445100D01*
X53877015Y-55584481D01*
X53758481Y-55703015D01*
X53619100Y-55796147D01*
X53464228Y-55860297D01*
X53299816Y-55893000D01*
X53132184Y-55893000D01*
X52967772Y-55860297D01*
X52812900Y-55796147D01*
X52673519Y-55703015D01*
X52554985Y-55584481D01*
X52461853Y-55445100D01*
X52397703Y-55290228D01*
X52365000Y-55125816D01*
X52365000Y-54958184D01*
X52397703Y-54793772D01*
X52461853Y-54638900D01*
X52554985Y-54499519D01*
X52673519Y-54380985D01*
X52812900Y-54287853D01*
X52967772Y-54223703D01*
X53132184Y-54191000D01*
X53299816Y-54191000D01*
X53464228Y-54223703D01*
X53464228Y-54223703D01*
G37*
G36*
X50924228Y-54223703D02*
G01*
X51079100Y-54287853D01*
X51218481Y-54380985D01*
X51337015Y-54499519D01*
X51430147Y-54638900D01*
X51494297Y-54793772D01*
X51527000Y-54958184D01*
X51527000Y-55125816D01*
X51494297Y-55290228D01*
X51430147Y-55445100D01*
X51337015Y-55584481D01*
X51218481Y-55703015D01*
X51079100Y-55796147D01*
X50924228Y-55860297D01*
X50759816Y-55893000D01*
X50592184Y-55893000D01*
X50427772Y-55860297D01*
X50272900Y-55796147D01*
X50133519Y-55703015D01*
X50014985Y-55584481D01*
X49921853Y-55445100D01*
X49857703Y-55290228D01*
X49825000Y-55125816D01*
X49825000Y-54958184D01*
X49857703Y-54793772D01*
X49921853Y-54638900D01*
X50014985Y-54499519D01*
X50133519Y-54380985D01*
X50272900Y-54287853D01*
X50427772Y-54223703D01*
X50592184Y-54191000D01*
X50759816Y-54191000D01*
X50924228Y-54223703D01*
X50924228Y-54223703D01*
G37*
G36*
X48384228Y-54223703D02*
G01*
X48539100Y-54287853D01*
X48678481Y-54380985D01*
X48797015Y-54499519D01*
X48890147Y-54638900D01*
X48954297Y-54793772D01*
X48987000Y-54958184D01*
X48987000Y-55125816D01*
X48954297Y-55290228D01*
X48890147Y-55445100D01*
X48797015Y-55584481D01*
X48678481Y-55703015D01*
X48539100Y-55796147D01*
X48384228Y-55860297D01*
X48219816Y-55893000D01*
X48052184Y-55893000D01*
X47887772Y-55860297D01*
X47732900Y-55796147D01*
X47593519Y-55703015D01*
X47474985Y-55584481D01*
X47381853Y-55445100D01*
X47317703Y-55290228D01*
X47285000Y-55125816D01*
X47285000Y-54958184D01*
X47317703Y-54793772D01*
X47381853Y-54638900D01*
X47474985Y-54499519D01*
X47593519Y-54380985D01*
X47732900Y-54287853D01*
X47887772Y-54223703D01*
X48052184Y-54191000D01*
X48219816Y-54191000D01*
X48384228Y-54223703D01*
X48384228Y-54223703D01*
G37*
G36*
X45844228Y-54223703D02*
G01*
X45999100Y-54287853D01*
X46138481Y-54380985D01*
X46257015Y-54499519D01*
X46350147Y-54638900D01*
X46414297Y-54793772D01*
X46447000Y-54958184D01*
X46447000Y-55125816D01*
X46414297Y-55290228D01*
X46350147Y-55445100D01*
X46257015Y-55584481D01*
X46138481Y-55703015D01*
X45999100Y-55796147D01*
X45844228Y-55860297D01*
X45679816Y-55893000D01*
X45512184Y-55893000D01*
X45347772Y-55860297D01*
X45192900Y-55796147D01*
X45053519Y-55703015D01*
X44934985Y-55584481D01*
X44841853Y-55445100D01*
X44777703Y-55290228D01*
X44745000Y-55125816D01*
X44745000Y-54958184D01*
X44777703Y-54793772D01*
X44841853Y-54638900D01*
X44934985Y-54499519D01*
X45053519Y-54380985D01*
X45192900Y-54287853D01*
X45347772Y-54223703D01*
X45512184Y-54191000D01*
X45679816Y-54191000D01*
X45844228Y-54223703D01*
X45844228Y-54223703D01*
G37*
G36*
X84858571Y-52252863D02*
G01*
X84937023Y-52260590D01*
X85037682Y-52291125D01*
X85088013Y-52306392D01*
X85227165Y-52380771D01*
X85349133Y-52480867D01*
X85449229Y-52602835D01*
X85523608Y-52741987D01*
X85523608Y-52741988D01*
X85569410Y-52892977D01*
X85584875Y-53050000D01*
X85569410Y-53207023D01*
X85538875Y-53307682D01*
X85523608Y-53358013D01*
X85449229Y-53497165D01*
X85349133Y-53619133D01*
X85227165Y-53719229D01*
X85088013Y-53793608D01*
X85037682Y-53808875D01*
X84937023Y-53839410D01*
X84858571Y-53847137D01*
X84819346Y-53851000D01*
X83240654Y-53851000D01*
X83201429Y-53847137D01*
X83122977Y-53839410D01*
X83022318Y-53808875D01*
X82971987Y-53793608D01*
X82832835Y-53719229D01*
X82710867Y-53619133D01*
X82610771Y-53497165D01*
X82536392Y-53358013D01*
X82521125Y-53307682D01*
X82490590Y-53207023D01*
X82475125Y-53050000D01*
X82490590Y-52892977D01*
X82536392Y-52741988D01*
X82536392Y-52741987D01*
X82610771Y-52602835D01*
X82710867Y-52480867D01*
X82832835Y-52380771D01*
X82971987Y-52306392D01*
X83022318Y-52291125D01*
X83122977Y-52260590D01*
X83201429Y-52252863D01*
X83240654Y-52249000D01*
X84819346Y-52249000D01*
X84858571Y-52252863D01*
X84858571Y-52252863D01*
G37*
G36*
X78764810Y-51025935D02*
G01*
X78911309Y-51086617D01*
X78911310Y-51086618D01*
X79043158Y-51174716D01*
X79155284Y-51286842D01*
X79155285Y-51286844D01*
X79243383Y-51418691D01*
X79304065Y-51565190D01*
X79335000Y-51720713D01*
X79335000Y-51879287D01*
X79304065Y-52034810D01*
X79243383Y-52181309D01*
X79243382Y-52181310D01*
X79155284Y-52313158D01*
X79043158Y-52425284D01*
X78976785Y-52469633D01*
X78911309Y-52513383D01*
X78764810Y-52574065D01*
X78609287Y-52605000D01*
X78450713Y-52605000D01*
X78295190Y-52574065D01*
X78148691Y-52513383D01*
X78083215Y-52469633D01*
X78016842Y-52425284D01*
X77904716Y-52313158D01*
X77816618Y-52181310D01*
X77816617Y-52181309D01*
X77755935Y-52034810D01*
X77725000Y-51879287D01*
X77725000Y-51720713D01*
X77755935Y-51565190D01*
X77816617Y-51418691D01*
X77904715Y-51286844D01*
X77904716Y-51286842D01*
X78016842Y-51174716D01*
X78148690Y-51086618D01*
X78148691Y-51086617D01*
X78295190Y-51025935D01*
X78450713Y-50995000D01*
X78609287Y-50995000D01*
X78764810Y-51025935D01*
X78764810Y-51025935D01*
G37*
G36*
X81264810Y-51025935D02*
G01*
X81411309Y-51086617D01*
X81411310Y-51086618D01*
X81543158Y-51174716D01*
X81655284Y-51286842D01*
X81655285Y-51286844D01*
X81743383Y-51418691D01*
X81804065Y-51565190D01*
X81835000Y-51720713D01*
X81835000Y-51879287D01*
X81804065Y-52034810D01*
X81743383Y-52181309D01*
X81743382Y-52181310D01*
X81655284Y-52313158D01*
X81543158Y-52425284D01*
X81476785Y-52469633D01*
X81411309Y-52513383D01*
X81264810Y-52574065D01*
X81109287Y-52605000D01*
X80950713Y-52605000D01*
X80795190Y-52574065D01*
X80648691Y-52513383D01*
X80583215Y-52469633D01*
X80516842Y-52425284D01*
X80404716Y-52313158D01*
X80316618Y-52181310D01*
X80316617Y-52181309D01*
X80255935Y-52034810D01*
X80225000Y-51879287D01*
X80225000Y-51720713D01*
X80255935Y-51565190D01*
X80316617Y-51418691D01*
X80404715Y-51286844D01*
X80404716Y-51286842D01*
X80516842Y-51174716D01*
X80648690Y-51086618D01*
X80648691Y-51086617D01*
X80795190Y-51025935D01*
X80950713Y-50995000D01*
X81109287Y-50995000D01*
X81264810Y-51025935D01*
X81264810Y-51025935D01*
G37*
G36*
X81264810Y-48925935D02*
G01*
X81411309Y-48986617D01*
X81411310Y-48986618D01*
X81543158Y-49074716D01*
X81655284Y-49186842D01*
X81699633Y-49253215D01*
X81743383Y-49318691D01*
X81804065Y-49465190D01*
X81835000Y-49620713D01*
X81835000Y-49779287D01*
X81804065Y-49934810D01*
X81743383Y-50081309D01*
X81743382Y-50081310D01*
X81655284Y-50213158D01*
X81543158Y-50325284D01*
X81477625Y-50369072D01*
X81411309Y-50413383D01*
X81264810Y-50474065D01*
X81109287Y-50505000D01*
X80950713Y-50505000D01*
X80795190Y-50474065D01*
X80648691Y-50413383D01*
X80582375Y-50369072D01*
X80516842Y-50325284D01*
X80404716Y-50213158D01*
X80316618Y-50081310D01*
X80316617Y-50081309D01*
X80255935Y-49934810D01*
X80225000Y-49779287D01*
X80225000Y-49620713D01*
X80255935Y-49465190D01*
X80316617Y-49318691D01*
X80360367Y-49253215D01*
X80404716Y-49186842D01*
X80516842Y-49074716D01*
X80648690Y-48986618D01*
X80648691Y-48986617D01*
X80795190Y-48925935D01*
X80950713Y-48895000D01*
X81109287Y-48895000D01*
X81264810Y-48925935D01*
X81264810Y-48925935D01*
G37*
G36*
X84987023Y-44260590D02*
G01*
X85072826Y-44286618D01*
X85138013Y-44306392D01*
X85277165Y-44380771D01*
X85399133Y-44480867D01*
X85499229Y-44602835D01*
X85573608Y-44741987D01*
X85573608Y-44741988D01*
X85619410Y-44892977D01*
X85619410Y-44892979D01*
X85631000Y-45010654D01*
X85631000Y-46805915D01*
X85633402Y-46830301D01*
X85640515Y-46853750D01*
X85645756Y-46864832D01*
X85666443Y-46903534D01*
X85717963Y-47073373D01*
X85717963Y-47073375D01*
X85731000Y-47205740D01*
X85731000Y-49594260D01*
X85728394Y-49620714D01*
X85717963Y-49726627D01*
X85666443Y-49896465D01*
X85666442Y-49896468D01*
X85645948Y-49934810D01*
X85582778Y-50052991D01*
X85578974Y-50057626D01*
X85470186Y-50190186D01*
X85332989Y-50302779D01*
X85290885Y-50325284D01*
X85176465Y-50386443D01*
X85006626Y-50437963D01*
X84830000Y-50455359D01*
X84653373Y-50437963D01*
X84483534Y-50386443D01*
X84327009Y-50302778D01*
X84291271Y-50273448D01*
X84189814Y-50190186D01*
X84077221Y-50052989D01*
X83993558Y-49896467D01*
X83958012Y-49779287D01*
X83942037Y-49726626D01*
X83929000Y-49594257D01*
X83929001Y-47205742D01*
X83942038Y-47073373D01*
X83993558Y-46903534D01*
X83993559Y-46903531D01*
X84014240Y-46864840D01*
X84023618Y-46842201D01*
X84029000Y-46805916D01*
X84029001Y-45010654D01*
X84040591Y-44892979D01*
X84040591Y-44892977D01*
X84086393Y-44741988D01*
X84086393Y-44741987D01*
X84160772Y-44602835D01*
X84260868Y-44480867D01*
X84382836Y-44380771D01*
X84521988Y-44306392D01*
X84587175Y-44286618D01*
X84672978Y-44260590D01*
X84830000Y-44245125D01*
X84987023Y-44260590D01*
X84987023Y-44260590D01*
G37*
G36*
X78677293Y-48959507D02*
G01*
X78750225Y-48974014D01*
X78807138Y-48997588D01*
X78887626Y-49030927D01*
X79011284Y-49113553D01*
X79116447Y-49218716D01*
X79199073Y-49342374D01*
X79232412Y-49422862D01*
X79249945Y-49465190D01*
X79255986Y-49479776D01*
X79285000Y-49625638D01*
X79285000Y-49774362D01*
X79284020Y-49779287D01*
X79255986Y-49920225D01*
X79232412Y-49977138D01*
X79199073Y-50057626D01*
X79116447Y-50181284D01*
X79011284Y-50286447D01*
X78887626Y-50369073D01*
X78807138Y-50402412D01*
X78750225Y-50425986D01*
X78690012Y-50437963D01*
X78604362Y-50455000D01*
X78455638Y-50455000D01*
X78369988Y-50437963D01*
X78309775Y-50425986D01*
X78252862Y-50402412D01*
X78172374Y-50369073D01*
X78048716Y-50286447D01*
X77943553Y-50181284D01*
X77860927Y-50057626D01*
X77827588Y-49977138D01*
X77804014Y-49920225D01*
X77775980Y-49779287D01*
X77775000Y-49774362D01*
X77775000Y-49625638D01*
X77804014Y-49479776D01*
X77810056Y-49465190D01*
X77827588Y-49422862D01*
X77860927Y-49342374D01*
X77943553Y-49218716D01*
X78048716Y-49113553D01*
X78172374Y-49030927D01*
X78252862Y-48997588D01*
X78309775Y-48974014D01*
X78382707Y-48959507D01*
X78455638Y-48945000D01*
X78604362Y-48945000D01*
X78677293Y-48959507D01*
X78677293Y-48959507D01*
G37*
G36*
X56275562Y-48228181D02*
G01*
X56310481Y-48238774D01*
X56342663Y-48255976D01*
X56370873Y-48279127D01*
X56394024Y-48307337D01*
X56411226Y-48339519D01*
X56421819Y-48374438D01*
X56426000Y-48416895D01*
X56426000Y-49558105D01*
X56421819Y-49600562D01*
X56411226Y-49635481D01*
X56394024Y-49667663D01*
X56370873Y-49695873D01*
X56342663Y-49719024D01*
X56310481Y-49736226D01*
X56275562Y-49746819D01*
X56233105Y-49751000D01*
X54766895Y-49751000D01*
X54724438Y-49746819D01*
X54689519Y-49736226D01*
X54657337Y-49719024D01*
X54629127Y-49695873D01*
X54605976Y-49667663D01*
X54588774Y-49635481D01*
X54578181Y-49600562D01*
X54574000Y-49558105D01*
X54574000Y-48416895D01*
X54578181Y-48374438D01*
X54588774Y-48339519D01*
X54605976Y-48307337D01*
X54629127Y-48279127D01*
X54657337Y-48255976D01*
X54689519Y-48238774D01*
X54724438Y-48228181D01*
X54766895Y-48224000D01*
X56233105Y-48224000D01*
X56275562Y-48228181D01*
X56275562Y-48228181D01*
G37*
G36*
X59071562Y-48228181D02*
G01*
X59106481Y-48238774D01*
X59138663Y-48255976D01*
X59166873Y-48279127D01*
X59190024Y-48307337D01*
X59207226Y-48339519D01*
X59217819Y-48374438D01*
X59222000Y-48416895D01*
X59222000Y-49558105D01*
X59217819Y-49600562D01*
X59207226Y-49635481D01*
X59190024Y-49667663D01*
X59166873Y-49695873D01*
X59138663Y-49719024D01*
X59106481Y-49736226D01*
X59071562Y-49746819D01*
X59029105Y-49751000D01*
X57562895Y-49751000D01*
X57520438Y-49746819D01*
X57485519Y-49736226D01*
X57453337Y-49719024D01*
X57425127Y-49695873D01*
X57401976Y-49667663D01*
X57384774Y-49635481D01*
X57374181Y-49600562D01*
X57370000Y-49558105D01*
X57370000Y-48416895D01*
X57374181Y-48374438D01*
X57384774Y-48339519D01*
X57401976Y-48307337D01*
X57425127Y-48279127D01*
X57453337Y-48255976D01*
X57485519Y-48238774D01*
X57520438Y-48228181D01*
X57562895Y-48224000D01*
X59029105Y-48224000D01*
X59071562Y-48228181D01*
X59071562Y-48228181D01*
G37*
G36*
X81835000Y-47905000D02*
G01*
X80225000Y-47905000D01*
X80225000Y-46295000D01*
X81835000Y-46295000D01*
X81835000Y-47905000D01*
X81835000Y-47905000D01*
G37*
G36*
X59071562Y-45253181D02*
G01*
X59106481Y-45263774D01*
X59138663Y-45280976D01*
X59166873Y-45304127D01*
X59190024Y-45332337D01*
X59207226Y-45364519D01*
X59217819Y-45399438D01*
X59222000Y-45441895D01*
X59222000Y-46583105D01*
X59217819Y-46625562D01*
X59207226Y-46660481D01*
X59190024Y-46692663D01*
X59166873Y-46720873D01*
X59138663Y-46744024D01*
X59106481Y-46761226D01*
X59071562Y-46771819D01*
X59029105Y-46776000D01*
X57562895Y-46776000D01*
X57520438Y-46771819D01*
X57485519Y-46761226D01*
X57453337Y-46744024D01*
X57425127Y-46720873D01*
X57401976Y-46692663D01*
X57384774Y-46660481D01*
X57374181Y-46625562D01*
X57370000Y-46583105D01*
X57370000Y-45441895D01*
X57374181Y-45399438D01*
X57384774Y-45364519D01*
X57401976Y-45332337D01*
X57425127Y-45304127D01*
X57453337Y-45280976D01*
X57485519Y-45263774D01*
X57520438Y-45253181D01*
X57562895Y-45249000D01*
X59029105Y-45249000D01*
X59071562Y-45253181D01*
X59071562Y-45253181D01*
G37*
G36*
X56275562Y-45253181D02*
G01*
X56310481Y-45263774D01*
X56342663Y-45280976D01*
X56370873Y-45304127D01*
X56394024Y-45332337D01*
X56411226Y-45364519D01*
X56421819Y-45399438D01*
X56426000Y-45441895D01*
X56426000Y-46583105D01*
X56421819Y-46625562D01*
X56411226Y-46660481D01*
X56394024Y-46692663D01*
X56370873Y-46720873D01*
X56342663Y-46744024D01*
X56310481Y-46761226D01*
X56275562Y-46771819D01*
X56233105Y-46776000D01*
X54766895Y-46776000D01*
X54724438Y-46771819D01*
X54689519Y-46761226D01*
X54657337Y-46744024D01*
X54629127Y-46720873D01*
X54605976Y-46692663D01*
X54588774Y-46660481D01*
X54578181Y-46625562D01*
X54574000Y-46583105D01*
X54574000Y-45441895D01*
X54578181Y-45399438D01*
X54588774Y-45364519D01*
X54605976Y-45332337D01*
X54629127Y-45304127D01*
X54657337Y-45280976D01*
X54689519Y-45263774D01*
X54724438Y-45253181D01*
X54766895Y-45249000D01*
X56233105Y-45249000D01*
X56275562Y-45253181D01*
X56275562Y-45253181D01*
G37*
G36*
X81264810Y-44225935D02*
G01*
X81411309Y-44286617D01*
X81411310Y-44286618D01*
X81543158Y-44374716D01*
X81655284Y-44486842D01*
X81655285Y-44486844D01*
X81743383Y-44618691D01*
X81804065Y-44765190D01*
X81835000Y-44920713D01*
X81835000Y-45079287D01*
X81804065Y-45234810D01*
X81743383Y-45381309D01*
X81743382Y-45381310D01*
X81655284Y-45513158D01*
X81543158Y-45625284D01*
X81476785Y-45669633D01*
X81411309Y-45713383D01*
X81264810Y-45774065D01*
X81109287Y-45805000D01*
X80950713Y-45805000D01*
X80795190Y-45774065D01*
X80648691Y-45713383D01*
X80583215Y-45669633D01*
X80516842Y-45625284D01*
X80404716Y-45513158D01*
X80316618Y-45381310D01*
X80316617Y-45381309D01*
X80255935Y-45234810D01*
X80225000Y-45079287D01*
X80225000Y-44920713D01*
X80255935Y-44765190D01*
X80316617Y-44618691D01*
X80404715Y-44486844D01*
X80404716Y-44486842D01*
X80516842Y-44374716D01*
X80648690Y-44286618D01*
X80648691Y-44286617D01*
X80795190Y-44225935D01*
X80950713Y-44195000D01*
X81109287Y-44195000D01*
X81264810Y-44225935D01*
X81264810Y-44225935D01*
G37*
G36*
X78764810Y-44225935D02*
G01*
X78911309Y-44286617D01*
X78911310Y-44286618D01*
X79043158Y-44374716D01*
X79155284Y-44486842D01*
X79155285Y-44486844D01*
X79243383Y-44618691D01*
X79304065Y-44765190D01*
X79335000Y-44920713D01*
X79335000Y-45079287D01*
X79304065Y-45234810D01*
X79243383Y-45381309D01*
X79243382Y-45381310D01*
X79155284Y-45513158D01*
X79043158Y-45625284D01*
X78976785Y-45669633D01*
X78911309Y-45713383D01*
X78764810Y-45774065D01*
X78609287Y-45805000D01*
X78450713Y-45805000D01*
X78295190Y-45774065D01*
X78148691Y-45713383D01*
X78083215Y-45669633D01*
X78016842Y-45625284D01*
X77904716Y-45513158D01*
X77816618Y-45381310D01*
X77816617Y-45381309D01*
X77755935Y-45234810D01*
X77725000Y-45079287D01*
X77725000Y-44920713D01*
X77755935Y-44765190D01*
X77816617Y-44618691D01*
X77904715Y-44486844D01*
X77904716Y-44486842D01*
X78016842Y-44374716D01*
X78148690Y-44286618D01*
X78148691Y-44286617D01*
X78295190Y-44225935D01*
X78450713Y-44195000D01*
X78609287Y-44195000D01*
X78764810Y-44225935D01*
X78764810Y-44225935D01*
G37*
G36*
X78644525Y-42152989D02*
G01*
X78750225Y-42174014D01*
X78807138Y-42197588D01*
X78887626Y-42230927D01*
X79011284Y-42313553D01*
X79116447Y-42418716D01*
X79199073Y-42542374D01*
X79255986Y-42679776D01*
X79285000Y-42825638D01*
X79285000Y-42974362D01*
X79255986Y-43120224D01*
X79199073Y-43257626D01*
X79116447Y-43381284D01*
X79011284Y-43486447D01*
X78887626Y-43569073D01*
X78807138Y-43602412D01*
X78750225Y-43625986D01*
X78677293Y-43640493D01*
X78604362Y-43655000D01*
X78455638Y-43655000D01*
X78382707Y-43640493D01*
X78309775Y-43625986D01*
X78252862Y-43602412D01*
X78172374Y-43569073D01*
X78048716Y-43486447D01*
X77943553Y-43381284D01*
X77860927Y-43257626D01*
X77804014Y-43120224D01*
X77775000Y-42974362D01*
X77775000Y-42825638D01*
X77804014Y-42679776D01*
X77860927Y-42542374D01*
X77943553Y-42418716D01*
X78048716Y-42313553D01*
X78172374Y-42230927D01*
X78252862Y-42197588D01*
X78309775Y-42174014D01*
X78415475Y-42152989D01*
X78455638Y-42145000D01*
X78604362Y-42145000D01*
X78644525Y-42152989D01*
X78644525Y-42152989D01*
G37*
G36*
X81785000Y-43655000D02*
G01*
X80275000Y-43655000D01*
X80275000Y-42145000D01*
X81785000Y-42145000D01*
X81785000Y-43655000D01*
X81785000Y-43655000D01*
G37*
G36*
X84890443Y-40755519D02*
G01*
X84956627Y-40762037D01*
X85126466Y-40813557D01*
X85282991Y-40897222D01*
X85318729Y-40926552D01*
X85420186Y-41009814D01*
X85503448Y-41111271D01*
X85532778Y-41147009D01*
X85616443Y-41303534D01*
X85667963Y-41473373D01*
X85685359Y-41650000D01*
X85667963Y-41826627D01*
X85616443Y-41996466D01*
X85532778Y-42152991D01*
X85503448Y-42188729D01*
X85420186Y-42290186D01*
X85318729Y-42373448D01*
X85282991Y-42402778D01*
X85126466Y-42486443D01*
X84956627Y-42537963D01*
X84890442Y-42544482D01*
X84824260Y-42551000D01*
X83235740Y-42551000D01*
X83169558Y-42544482D01*
X83103373Y-42537963D01*
X82933534Y-42486443D01*
X82777009Y-42402778D01*
X82741271Y-42373448D01*
X82639814Y-42290186D01*
X82556552Y-42188729D01*
X82527222Y-42152991D01*
X82443557Y-41996466D01*
X82392037Y-41826627D01*
X82374641Y-41650000D01*
X82392037Y-41473373D01*
X82443557Y-41303534D01*
X82527222Y-41147009D01*
X82556552Y-41111271D01*
X82639814Y-41009814D01*
X82741271Y-40926552D01*
X82777009Y-40897222D01*
X82933534Y-40813557D01*
X83103373Y-40762037D01*
X83169557Y-40755519D01*
X83235740Y-40749000D01*
X84824260Y-40749000D01*
X84890443Y-40755519D01*
X84890443Y-40755519D01*
G37*
G36*
X73784228Y-38983703D02*
G01*
X73939100Y-39047853D01*
X74078481Y-39140985D01*
X74197015Y-39259519D01*
X74290147Y-39398900D01*
X74354297Y-39553772D01*
X74387000Y-39718184D01*
X74387000Y-39885816D01*
X74354297Y-40050228D01*
X74290147Y-40205100D01*
X74197015Y-40344481D01*
X74078481Y-40463015D01*
X73939100Y-40556147D01*
X73784228Y-40620297D01*
X73619816Y-40653000D01*
X73452184Y-40653000D01*
X73287772Y-40620297D01*
X73132900Y-40556147D01*
X72993519Y-40463015D01*
X72874985Y-40344481D01*
X72781853Y-40205100D01*
X72717703Y-40050228D01*
X72685000Y-39885816D01*
X72685000Y-39718184D01*
X72717703Y-39553772D01*
X72781853Y-39398900D01*
X72874985Y-39259519D01*
X72993519Y-39140985D01*
X73132900Y-39047853D01*
X73287772Y-38983703D01*
X73452184Y-38951000D01*
X73619816Y-38951000D01*
X73784228Y-38983703D01*
X73784228Y-38983703D01*
G37*
G36*
X46447000Y-40653000D02*
G01*
X44745000Y-40653000D01*
X44745000Y-38951000D01*
X46447000Y-38951000D01*
X46447000Y-40653000D01*
X46447000Y-40653000D01*
G37*
G36*
X48384228Y-38983703D02*
G01*
X48539100Y-39047853D01*
X48678481Y-39140985D01*
X48797015Y-39259519D01*
X48890147Y-39398900D01*
X48954297Y-39553772D01*
X48987000Y-39718184D01*
X48987000Y-39885816D01*
X48954297Y-40050228D01*
X48890147Y-40205100D01*
X48797015Y-40344481D01*
X48678481Y-40463015D01*
X48539100Y-40556147D01*
X48384228Y-40620297D01*
X48219816Y-40653000D01*
X48052184Y-40653000D01*
X47887772Y-40620297D01*
X47732900Y-40556147D01*
X47593519Y-40463015D01*
X47474985Y-40344481D01*
X47381853Y-40205100D01*
X47317703Y-40050228D01*
X47285000Y-39885816D01*
X47285000Y-39718184D01*
X47317703Y-39553772D01*
X47381853Y-39398900D01*
X47474985Y-39259519D01*
X47593519Y-39140985D01*
X47732900Y-39047853D01*
X47887772Y-38983703D01*
X48052184Y-38951000D01*
X48219816Y-38951000D01*
X48384228Y-38983703D01*
X48384228Y-38983703D01*
G37*
G36*
X50924228Y-38983703D02*
G01*
X51079100Y-39047853D01*
X51218481Y-39140985D01*
X51337015Y-39259519D01*
X51430147Y-39398900D01*
X51494297Y-39553772D01*
X51527000Y-39718184D01*
X51527000Y-39885816D01*
X51494297Y-40050228D01*
X51430147Y-40205100D01*
X51337015Y-40344481D01*
X51218481Y-40463015D01*
X51079100Y-40556147D01*
X50924228Y-40620297D01*
X50759816Y-40653000D01*
X50592184Y-40653000D01*
X50427772Y-40620297D01*
X50272900Y-40556147D01*
X50133519Y-40463015D01*
X50014985Y-40344481D01*
X49921853Y-40205100D01*
X49857703Y-40050228D01*
X49825000Y-39885816D01*
X49825000Y-39718184D01*
X49857703Y-39553772D01*
X49921853Y-39398900D01*
X50014985Y-39259519D01*
X50133519Y-39140985D01*
X50272900Y-39047853D01*
X50427772Y-38983703D01*
X50592184Y-38951000D01*
X50759816Y-38951000D01*
X50924228Y-38983703D01*
X50924228Y-38983703D01*
G37*
G36*
X53464228Y-38983703D02*
G01*
X53619100Y-39047853D01*
X53758481Y-39140985D01*
X53877015Y-39259519D01*
X53970147Y-39398900D01*
X54034297Y-39553772D01*
X54067000Y-39718184D01*
X54067000Y-39885816D01*
X54034297Y-40050228D01*
X53970147Y-40205100D01*
X53877015Y-40344481D01*
X53758481Y-40463015D01*
X53619100Y-40556147D01*
X53464228Y-40620297D01*
X53299816Y-40653000D01*
X53132184Y-40653000D01*
X52967772Y-40620297D01*
X52812900Y-40556147D01*
X52673519Y-40463015D01*
X52554985Y-40344481D01*
X52461853Y-40205100D01*
X52397703Y-40050228D01*
X52365000Y-39885816D01*
X52365000Y-39718184D01*
X52397703Y-39553772D01*
X52461853Y-39398900D01*
X52554985Y-39259519D01*
X52673519Y-39140985D01*
X52812900Y-39047853D01*
X52967772Y-38983703D01*
X53132184Y-38951000D01*
X53299816Y-38951000D01*
X53464228Y-38983703D01*
X53464228Y-38983703D01*
G37*
G36*
X56004228Y-38983703D02*
G01*
X56159100Y-39047853D01*
X56298481Y-39140985D01*
X56417015Y-39259519D01*
X56510147Y-39398900D01*
X56574297Y-39553772D01*
X56607000Y-39718184D01*
X56607000Y-39885816D01*
X56574297Y-40050228D01*
X56510147Y-40205100D01*
X56417015Y-40344481D01*
X56298481Y-40463015D01*
X56159100Y-40556147D01*
X56004228Y-40620297D01*
X55839816Y-40653000D01*
X55672184Y-40653000D01*
X55507772Y-40620297D01*
X55352900Y-40556147D01*
X55213519Y-40463015D01*
X55094985Y-40344481D01*
X55001853Y-40205100D01*
X54937703Y-40050228D01*
X54905000Y-39885816D01*
X54905000Y-39718184D01*
X54937703Y-39553772D01*
X55001853Y-39398900D01*
X55094985Y-39259519D01*
X55213519Y-39140985D01*
X55352900Y-39047853D01*
X55507772Y-38983703D01*
X55672184Y-38951000D01*
X55839816Y-38951000D01*
X56004228Y-38983703D01*
X56004228Y-38983703D01*
G37*
G36*
X58544228Y-38983703D02*
G01*
X58699100Y-39047853D01*
X58838481Y-39140985D01*
X58957015Y-39259519D01*
X59050147Y-39398900D01*
X59114297Y-39553772D01*
X59147000Y-39718184D01*
X59147000Y-39885816D01*
X59114297Y-40050228D01*
X59050147Y-40205100D01*
X58957015Y-40344481D01*
X58838481Y-40463015D01*
X58699100Y-40556147D01*
X58544228Y-40620297D01*
X58379816Y-40653000D01*
X58212184Y-40653000D01*
X58047772Y-40620297D01*
X57892900Y-40556147D01*
X57753519Y-40463015D01*
X57634985Y-40344481D01*
X57541853Y-40205100D01*
X57477703Y-40050228D01*
X57445000Y-39885816D01*
X57445000Y-39718184D01*
X57477703Y-39553772D01*
X57541853Y-39398900D01*
X57634985Y-39259519D01*
X57753519Y-39140985D01*
X57892900Y-39047853D01*
X58047772Y-38983703D01*
X58212184Y-38951000D01*
X58379816Y-38951000D01*
X58544228Y-38983703D01*
X58544228Y-38983703D01*
G37*
G36*
X61084228Y-38983703D02*
G01*
X61239100Y-39047853D01*
X61378481Y-39140985D01*
X61497015Y-39259519D01*
X61590147Y-39398900D01*
X61654297Y-39553772D01*
X61687000Y-39718184D01*
X61687000Y-39885816D01*
X61654297Y-40050228D01*
X61590147Y-40205100D01*
X61497015Y-40344481D01*
X61378481Y-40463015D01*
X61239100Y-40556147D01*
X61084228Y-40620297D01*
X60919816Y-40653000D01*
X60752184Y-40653000D01*
X60587772Y-40620297D01*
X60432900Y-40556147D01*
X60293519Y-40463015D01*
X60174985Y-40344481D01*
X60081853Y-40205100D01*
X60017703Y-40050228D01*
X59985000Y-39885816D01*
X59985000Y-39718184D01*
X60017703Y-39553772D01*
X60081853Y-39398900D01*
X60174985Y-39259519D01*
X60293519Y-39140985D01*
X60432900Y-39047853D01*
X60587772Y-38983703D01*
X60752184Y-38951000D01*
X60919816Y-38951000D01*
X61084228Y-38983703D01*
X61084228Y-38983703D01*
G37*
G36*
X63624228Y-38983703D02*
G01*
X63779100Y-39047853D01*
X63918481Y-39140985D01*
X64037015Y-39259519D01*
X64130147Y-39398900D01*
X64194297Y-39553772D01*
X64227000Y-39718184D01*
X64227000Y-39885816D01*
X64194297Y-40050228D01*
X64130147Y-40205100D01*
X64037015Y-40344481D01*
X63918481Y-40463015D01*
X63779100Y-40556147D01*
X63624228Y-40620297D01*
X63459816Y-40653000D01*
X63292184Y-40653000D01*
X63127772Y-40620297D01*
X62972900Y-40556147D01*
X62833519Y-40463015D01*
X62714985Y-40344481D01*
X62621853Y-40205100D01*
X62557703Y-40050228D01*
X62525000Y-39885816D01*
X62525000Y-39718184D01*
X62557703Y-39553772D01*
X62621853Y-39398900D01*
X62714985Y-39259519D01*
X62833519Y-39140985D01*
X62972900Y-39047853D01*
X63127772Y-38983703D01*
X63292184Y-38951000D01*
X63459816Y-38951000D01*
X63624228Y-38983703D01*
X63624228Y-38983703D01*
G37*
G36*
X71244228Y-38983703D02*
G01*
X71399100Y-39047853D01*
X71538481Y-39140985D01*
X71657015Y-39259519D01*
X71750147Y-39398900D01*
X71814297Y-39553772D01*
X71847000Y-39718184D01*
X71847000Y-39885816D01*
X71814297Y-40050228D01*
X71750147Y-40205100D01*
X71657015Y-40344481D01*
X71538481Y-40463015D01*
X71399100Y-40556147D01*
X71244228Y-40620297D01*
X71079816Y-40653000D01*
X70912184Y-40653000D01*
X70747772Y-40620297D01*
X70592900Y-40556147D01*
X70453519Y-40463015D01*
X70334985Y-40344481D01*
X70241853Y-40205100D01*
X70177703Y-40050228D01*
X70145000Y-39885816D01*
X70145000Y-39718184D01*
X70177703Y-39553772D01*
X70241853Y-39398900D01*
X70334985Y-39259519D01*
X70453519Y-39140985D01*
X70592900Y-39047853D01*
X70747772Y-38983703D01*
X70912184Y-38951000D01*
X71079816Y-38951000D01*
X71244228Y-38983703D01*
X71244228Y-38983703D01*
G37*
G36*
X68704228Y-38983703D02*
G01*
X68859100Y-39047853D01*
X68998481Y-39140985D01*
X69117015Y-39259519D01*
X69210147Y-39398900D01*
X69274297Y-39553772D01*
X69307000Y-39718184D01*
X69307000Y-39885816D01*
X69274297Y-40050228D01*
X69210147Y-40205100D01*
X69117015Y-40344481D01*
X68998481Y-40463015D01*
X68859100Y-40556147D01*
X68704228Y-40620297D01*
X68539816Y-40653000D01*
X68372184Y-40653000D01*
X68207772Y-40620297D01*
X68052900Y-40556147D01*
X67913519Y-40463015D01*
X67794985Y-40344481D01*
X67701853Y-40205100D01*
X67637703Y-40050228D01*
X67605000Y-39885816D01*
X67605000Y-39718184D01*
X67637703Y-39553772D01*
X67701853Y-39398900D01*
X67794985Y-39259519D01*
X67913519Y-39140985D01*
X68052900Y-39047853D01*
X68207772Y-38983703D01*
X68372184Y-38951000D01*
X68539816Y-38951000D01*
X68704228Y-38983703D01*
X68704228Y-38983703D01*
G37*
G36*
X66164228Y-38983703D02*
G01*
X66319100Y-39047853D01*
X66458481Y-39140985D01*
X66577015Y-39259519D01*
X66670147Y-39398900D01*
X66734297Y-39553772D01*
X66767000Y-39718184D01*
X66767000Y-39885816D01*
X66734297Y-40050228D01*
X66670147Y-40205100D01*
X66577015Y-40344481D01*
X66458481Y-40463015D01*
X66319100Y-40556147D01*
X66164228Y-40620297D01*
X65999816Y-40653000D01*
X65832184Y-40653000D01*
X65667772Y-40620297D01*
X65512900Y-40556147D01*
X65373519Y-40463015D01*
X65254985Y-40344481D01*
X65161853Y-40205100D01*
X65097703Y-40050228D01*
X65065000Y-39885816D01*
X65065000Y-39718184D01*
X65097703Y-39553772D01*
X65161853Y-39398900D01*
X65254985Y-39259519D01*
X65373519Y-39140985D01*
X65512900Y-39047853D01*
X65667772Y-38983703D01*
X65832184Y-38951000D01*
X65999816Y-38951000D01*
X66164228Y-38983703D01*
X66164228Y-38983703D01*
G37*
G36*
X84858571Y-38752863D02*
G01*
X84937023Y-38760590D01*
X85037682Y-38791125D01*
X85088013Y-38806392D01*
X85227165Y-38880771D01*
X85349133Y-38980867D01*
X85449229Y-39102835D01*
X85523608Y-39241987D01*
X85523608Y-39241988D01*
X85569410Y-39392977D01*
X85584875Y-39550000D01*
X85569410Y-39707023D01*
X85566024Y-39718184D01*
X85523608Y-39858013D01*
X85449229Y-39997165D01*
X85349133Y-40119133D01*
X85227165Y-40219229D01*
X85088013Y-40293608D01*
X85037682Y-40308875D01*
X84937023Y-40339410D01*
X84858571Y-40347137D01*
X84819346Y-40351000D01*
X83240654Y-40351000D01*
X83201429Y-40347137D01*
X83122977Y-40339410D01*
X83022318Y-40308875D01*
X82971987Y-40293608D01*
X82832835Y-40219229D01*
X82710867Y-40119133D01*
X82610771Y-39997165D01*
X82536392Y-39858013D01*
X82493976Y-39718184D01*
X82490590Y-39707023D01*
X82475125Y-39550000D01*
X82490590Y-39392977D01*
X82536392Y-39241988D01*
X82536392Y-39241987D01*
X82610771Y-39102835D01*
X82710867Y-38980867D01*
X82832835Y-38880771D01*
X82971987Y-38806392D01*
X83022318Y-38791125D01*
X83122977Y-38760590D01*
X83201429Y-38752863D01*
X83240654Y-38749000D01*
X84819346Y-38749000D01*
X84858571Y-38752863D01*
X84858571Y-38752863D01*
G37*
M02*
