G04 #@! TF.GenerationSoftware,KiCad,Pcbnew,(5.1.0-0)*
G04 #@! TF.CreationDate,2019-03-25T02:14:44+01:00*
G04 #@! TF.ProjectId,adapter,61646170-7465-4722-9e6b-696361645f70,rev?*
G04 #@! TF.SameCoordinates,Original*
G04 #@! TF.FileFunction,Paste,Top*
G04 #@! TF.FilePolarity,Positive*
%FSLAX46Y46*%
G04 Gerber Fmt 4.6, Leading zero omitted, Abs format (unit mm)*
G04 Created by KiCad (PCBNEW (5.1.0-0)) date 2019-03-25 02:14:44*
%MOMM*%
%LPD*%
G04 APERTURE LIST*
%ADD10C,0.100000*%
%ADD11C,1.425000*%
G04 APERTURE END LIST*
D10*
G36*
X56149504Y-48276204D02*
G01*
X56173773Y-48279804D01*
X56197571Y-48285765D01*
X56220671Y-48294030D01*
X56242849Y-48304520D01*
X56263893Y-48317133D01*
X56283598Y-48331747D01*
X56301777Y-48348223D01*
X56318253Y-48366402D01*
X56332867Y-48386107D01*
X56345480Y-48407151D01*
X56355970Y-48429329D01*
X56364235Y-48452429D01*
X56370196Y-48476227D01*
X56373796Y-48500496D01*
X56375000Y-48525000D01*
X56375000Y-49450000D01*
X56373796Y-49474504D01*
X56370196Y-49498773D01*
X56364235Y-49522571D01*
X56355970Y-49545671D01*
X56345480Y-49567849D01*
X56332867Y-49588893D01*
X56318253Y-49608598D01*
X56301777Y-49626777D01*
X56283598Y-49643253D01*
X56263893Y-49657867D01*
X56242849Y-49670480D01*
X56220671Y-49680970D01*
X56197571Y-49689235D01*
X56173773Y-49695196D01*
X56149504Y-49698796D01*
X56125000Y-49700000D01*
X54875000Y-49700000D01*
X54850496Y-49698796D01*
X54826227Y-49695196D01*
X54802429Y-49689235D01*
X54779329Y-49680970D01*
X54757151Y-49670480D01*
X54736107Y-49657867D01*
X54716402Y-49643253D01*
X54698223Y-49626777D01*
X54681747Y-49608598D01*
X54667133Y-49588893D01*
X54654520Y-49567849D01*
X54644030Y-49545671D01*
X54635765Y-49522571D01*
X54629804Y-49498773D01*
X54626204Y-49474504D01*
X54625000Y-49450000D01*
X54625000Y-48525000D01*
X54626204Y-48500496D01*
X54629804Y-48476227D01*
X54635765Y-48452429D01*
X54644030Y-48429329D01*
X54654520Y-48407151D01*
X54667133Y-48386107D01*
X54681747Y-48366402D01*
X54698223Y-48348223D01*
X54716402Y-48331747D01*
X54736107Y-48317133D01*
X54757151Y-48304520D01*
X54779329Y-48294030D01*
X54802429Y-48285765D01*
X54826227Y-48279804D01*
X54850496Y-48276204D01*
X54875000Y-48275000D01*
X56125000Y-48275000D01*
X56149504Y-48276204D01*
X56149504Y-48276204D01*
G37*
D11*
X55500000Y-48987500D03*
D10*
G36*
X56149504Y-45301204D02*
G01*
X56173773Y-45304804D01*
X56197571Y-45310765D01*
X56220671Y-45319030D01*
X56242849Y-45329520D01*
X56263893Y-45342133D01*
X56283598Y-45356747D01*
X56301777Y-45373223D01*
X56318253Y-45391402D01*
X56332867Y-45411107D01*
X56345480Y-45432151D01*
X56355970Y-45454329D01*
X56364235Y-45477429D01*
X56370196Y-45501227D01*
X56373796Y-45525496D01*
X56375000Y-45550000D01*
X56375000Y-46475000D01*
X56373796Y-46499504D01*
X56370196Y-46523773D01*
X56364235Y-46547571D01*
X56355970Y-46570671D01*
X56345480Y-46592849D01*
X56332867Y-46613893D01*
X56318253Y-46633598D01*
X56301777Y-46651777D01*
X56283598Y-46668253D01*
X56263893Y-46682867D01*
X56242849Y-46695480D01*
X56220671Y-46705970D01*
X56197571Y-46714235D01*
X56173773Y-46720196D01*
X56149504Y-46723796D01*
X56125000Y-46725000D01*
X54875000Y-46725000D01*
X54850496Y-46723796D01*
X54826227Y-46720196D01*
X54802429Y-46714235D01*
X54779329Y-46705970D01*
X54757151Y-46695480D01*
X54736107Y-46682867D01*
X54716402Y-46668253D01*
X54698223Y-46651777D01*
X54681747Y-46633598D01*
X54667133Y-46613893D01*
X54654520Y-46592849D01*
X54644030Y-46570671D01*
X54635765Y-46547571D01*
X54629804Y-46523773D01*
X54626204Y-46499504D01*
X54625000Y-46475000D01*
X54625000Y-45550000D01*
X54626204Y-45525496D01*
X54629804Y-45501227D01*
X54635765Y-45477429D01*
X54644030Y-45454329D01*
X54654520Y-45432151D01*
X54667133Y-45411107D01*
X54681747Y-45391402D01*
X54698223Y-45373223D01*
X54716402Y-45356747D01*
X54736107Y-45342133D01*
X54757151Y-45329520D01*
X54779329Y-45319030D01*
X54802429Y-45310765D01*
X54826227Y-45304804D01*
X54850496Y-45301204D01*
X54875000Y-45300000D01*
X56125000Y-45300000D01*
X56149504Y-45301204D01*
X56149504Y-45301204D01*
G37*
D11*
X55500000Y-46012500D03*
D10*
G36*
X58945504Y-45301204D02*
G01*
X58969773Y-45304804D01*
X58993571Y-45310765D01*
X59016671Y-45319030D01*
X59038849Y-45329520D01*
X59059893Y-45342133D01*
X59079598Y-45356747D01*
X59097777Y-45373223D01*
X59114253Y-45391402D01*
X59128867Y-45411107D01*
X59141480Y-45432151D01*
X59151970Y-45454329D01*
X59160235Y-45477429D01*
X59166196Y-45501227D01*
X59169796Y-45525496D01*
X59171000Y-45550000D01*
X59171000Y-46475000D01*
X59169796Y-46499504D01*
X59166196Y-46523773D01*
X59160235Y-46547571D01*
X59151970Y-46570671D01*
X59141480Y-46592849D01*
X59128867Y-46613893D01*
X59114253Y-46633598D01*
X59097777Y-46651777D01*
X59079598Y-46668253D01*
X59059893Y-46682867D01*
X59038849Y-46695480D01*
X59016671Y-46705970D01*
X58993571Y-46714235D01*
X58969773Y-46720196D01*
X58945504Y-46723796D01*
X58921000Y-46725000D01*
X57671000Y-46725000D01*
X57646496Y-46723796D01*
X57622227Y-46720196D01*
X57598429Y-46714235D01*
X57575329Y-46705970D01*
X57553151Y-46695480D01*
X57532107Y-46682867D01*
X57512402Y-46668253D01*
X57494223Y-46651777D01*
X57477747Y-46633598D01*
X57463133Y-46613893D01*
X57450520Y-46592849D01*
X57440030Y-46570671D01*
X57431765Y-46547571D01*
X57425804Y-46523773D01*
X57422204Y-46499504D01*
X57421000Y-46475000D01*
X57421000Y-45550000D01*
X57422204Y-45525496D01*
X57425804Y-45501227D01*
X57431765Y-45477429D01*
X57440030Y-45454329D01*
X57450520Y-45432151D01*
X57463133Y-45411107D01*
X57477747Y-45391402D01*
X57494223Y-45373223D01*
X57512402Y-45356747D01*
X57532107Y-45342133D01*
X57553151Y-45329520D01*
X57575329Y-45319030D01*
X57598429Y-45310765D01*
X57622227Y-45304804D01*
X57646496Y-45301204D01*
X57671000Y-45300000D01*
X58921000Y-45300000D01*
X58945504Y-45301204D01*
X58945504Y-45301204D01*
G37*
D11*
X58296000Y-46012500D03*
D10*
G36*
X58945504Y-48276204D02*
G01*
X58969773Y-48279804D01*
X58993571Y-48285765D01*
X59016671Y-48294030D01*
X59038849Y-48304520D01*
X59059893Y-48317133D01*
X59079598Y-48331747D01*
X59097777Y-48348223D01*
X59114253Y-48366402D01*
X59128867Y-48386107D01*
X59141480Y-48407151D01*
X59151970Y-48429329D01*
X59160235Y-48452429D01*
X59166196Y-48476227D01*
X59169796Y-48500496D01*
X59171000Y-48525000D01*
X59171000Y-49450000D01*
X59169796Y-49474504D01*
X59166196Y-49498773D01*
X59160235Y-49522571D01*
X59151970Y-49545671D01*
X59141480Y-49567849D01*
X59128867Y-49588893D01*
X59114253Y-49608598D01*
X59097777Y-49626777D01*
X59079598Y-49643253D01*
X59059893Y-49657867D01*
X59038849Y-49670480D01*
X59016671Y-49680970D01*
X58993571Y-49689235D01*
X58969773Y-49695196D01*
X58945504Y-49698796D01*
X58921000Y-49700000D01*
X57671000Y-49700000D01*
X57646496Y-49698796D01*
X57622227Y-49695196D01*
X57598429Y-49689235D01*
X57575329Y-49680970D01*
X57553151Y-49670480D01*
X57532107Y-49657867D01*
X57512402Y-49643253D01*
X57494223Y-49626777D01*
X57477747Y-49608598D01*
X57463133Y-49588893D01*
X57450520Y-49567849D01*
X57440030Y-49545671D01*
X57431765Y-49522571D01*
X57425804Y-49498773D01*
X57422204Y-49474504D01*
X57421000Y-49450000D01*
X57421000Y-48525000D01*
X57422204Y-48500496D01*
X57425804Y-48476227D01*
X57431765Y-48452429D01*
X57440030Y-48429329D01*
X57450520Y-48407151D01*
X57463133Y-48386107D01*
X57477747Y-48366402D01*
X57494223Y-48348223D01*
X57512402Y-48331747D01*
X57532107Y-48317133D01*
X57553151Y-48304520D01*
X57575329Y-48294030D01*
X57598429Y-48285765D01*
X57622227Y-48279804D01*
X57646496Y-48276204D01*
X57671000Y-48275000D01*
X58921000Y-48275000D01*
X58945504Y-48276204D01*
X58945504Y-48276204D01*
G37*
D11*
X58296000Y-48987500D03*
M02*
