G04 #@! TF.GenerationSoftware,KiCad,Pcbnew,(5.1.0-0)*
G04 #@! TF.CreationDate,2019-03-25T02:14:44+01:00*
G04 #@! TF.ProjectId,adapter,61646170-7465-4722-9e6b-696361645f70,rev?*
G04 #@! TF.SameCoordinates,Original*
G04 #@! TF.FileFunction,Copper,L2,Bot*
G04 #@! TF.FilePolarity,Positive*
%FSLAX46Y46*%
G04 Gerber Fmt 4.6, Leading zero omitted, Abs format (unit mm)*
G04 Created by KiCad (PCBNEW (5.1.0-0)) date 2019-03-25 02:14:44*
%MOMM*%
%LPD*%
G04 APERTURE LIST*
%ADD10C,1.508000*%
%ADD11R,1.508000X1.508000*%
%ADD12O,3.200000X1.700000*%
%ADD13O,1.700000X4.000000*%
%ADD14C,1.408000*%
%ADD15O,1.500000X4.000000*%
%ADD16R,1.408000X1.408000*%
%ADD17O,3.000000X1.500000*%
%ADD18C,1.600000*%
%ADD19R,1.600000X1.600000*%
%ADD20C,0.800000*%
%ADD21C,0.500000*%
%ADD22C,0.250000*%
%ADD23C,0.254000*%
G04 APERTURE END LIST*
D10*
X81030000Y-49700000D03*
X78530000Y-51800000D03*
X81030000Y-51800000D03*
X81030000Y-45000000D03*
X78530000Y-45000000D03*
D11*
X81030000Y-47100000D03*
D12*
X84030000Y-55150000D03*
D13*
X84830000Y-48400000D03*
D12*
X84030000Y-41650000D03*
D14*
X78530000Y-49700000D03*
D15*
X84830000Y-46300000D03*
D14*
X78530000Y-42900000D03*
X81030000Y-49700000D03*
D16*
X81030000Y-42900000D03*
D17*
X84030000Y-53050000D03*
X84030000Y-39550000D03*
D18*
X45596000Y-55042000D03*
X48136000Y-55042000D03*
X50676000Y-55042000D03*
X53216000Y-55042000D03*
X55756000Y-55042000D03*
X58296000Y-55042000D03*
X60836000Y-55042000D03*
X63376000Y-55042000D03*
X65916000Y-55042000D03*
X68456000Y-55042000D03*
X70996000Y-55042000D03*
X73536000Y-55042000D03*
X73536000Y-39802000D03*
X70996000Y-39802000D03*
X68456000Y-39802000D03*
X65916000Y-39802000D03*
X63376000Y-39802000D03*
X60836000Y-39802000D03*
X58296000Y-39802000D03*
X55756000Y-39802000D03*
X53216000Y-39802000D03*
X50676000Y-39802000D03*
X48136000Y-39802000D03*
D19*
X45596000Y-39802000D03*
D20*
X58296000Y-47421800D03*
X55500000Y-47450000D03*
D21*
X78530000Y-48704394D02*
X78530000Y-49700000D01*
X78530000Y-47281998D02*
X78530000Y-48704394D01*
X80811998Y-45000000D02*
X78530000Y-47281998D01*
X81030000Y-45000000D02*
X80811998Y-45000000D01*
X81030000Y-45000000D02*
X83000000Y-45000000D01*
D22*
X85455060Y-40034644D02*
X85455060Y-39334644D01*
X84780000Y-41650000D02*
X85455060Y-40974940D01*
X85455060Y-40974940D02*
X85455060Y-40034644D01*
X84030000Y-41650000D02*
X84780000Y-41650000D01*
D21*
X58296000Y-39802000D02*
X58296000Y-47421800D01*
X55756000Y-47194000D02*
X55500000Y-47450000D01*
X55756000Y-39802000D02*
X55756000Y-47194000D01*
X55750000Y-55036000D02*
X55756000Y-55042000D01*
X58296000Y-55042000D02*
X58296000Y-54996000D01*
D23*
G36*
X81937682Y-39208815D02*
G01*
X82060344Y-39423000D01*
X82294950Y-39423000D01*
X82294950Y-39677000D01*
X82060344Y-39677000D01*
X81937682Y-39891185D01*
X81951827Y-39962684D01*
X82057858Y-40213868D01*
X82210855Y-40439540D01*
X82303293Y-40530742D01*
X82140143Y-40689748D01*
X81974709Y-40930574D01*
X81859437Y-41199047D01*
X81838524Y-41293110D01*
X81959844Y-41522998D01*
X81795000Y-41522998D01*
X81795000Y-41563936D01*
X81734000Y-41557928D01*
X80326000Y-41557928D01*
X80201518Y-41570188D01*
X80081820Y-41606498D01*
X79971506Y-41665463D01*
X79874815Y-41744815D01*
X79795463Y-41841506D01*
X79736498Y-41951820D01*
X79700188Y-42071518D01*
X79687928Y-42196000D01*
X79687928Y-42222825D01*
X79570069Y-42046437D01*
X79383563Y-41859931D01*
X79164254Y-41713393D01*
X78920572Y-41612457D01*
X78661880Y-41561000D01*
X78398120Y-41561000D01*
X78139428Y-41612457D01*
X77895746Y-41713393D01*
X77676437Y-41859931D01*
X77489931Y-42046437D01*
X77343393Y-42265746D01*
X77242457Y-42509428D01*
X77191000Y-42768120D01*
X77191000Y-43031880D01*
X77242457Y-43290572D01*
X77343393Y-43534254D01*
X77489931Y-43753563D01*
X77652295Y-43915927D01*
X77644564Y-43921093D01*
X77451093Y-44114564D01*
X77299084Y-44342062D01*
X77194378Y-44594844D01*
X77141000Y-44863195D01*
X77141000Y-45136805D01*
X77194378Y-45405156D01*
X77299084Y-45657938D01*
X77451093Y-45885436D01*
X77644564Y-46078907D01*
X77872062Y-46230916D01*
X78124844Y-46335622D01*
X78393195Y-46389000D01*
X78666805Y-46389000D01*
X78935156Y-46335622D01*
X79187938Y-46230916D01*
X79415436Y-46078907D01*
X79608907Y-45885436D01*
X79760916Y-45657938D01*
X79778322Y-45615916D01*
X79830873Y-45714235D01*
X80015564Y-45765187D01*
X79921506Y-45815463D01*
X79824815Y-45894815D01*
X79745463Y-45991506D01*
X79686498Y-46101820D01*
X79650188Y-46221518D01*
X79637928Y-46346000D01*
X79637928Y-47854000D01*
X79650188Y-47978482D01*
X79686498Y-48098180D01*
X79745463Y-48208494D01*
X79824815Y-48305185D01*
X79921506Y-48384537D01*
X80031820Y-48443502D01*
X80151518Y-48479812D01*
X80276000Y-48492072D01*
X80337658Y-48492072D01*
X80144564Y-48621093D01*
X79951093Y-48814564D01*
X79799084Y-49042062D01*
X79754535Y-49149613D01*
X79742724Y-49117236D01*
X79688305Y-49015423D01*
X79454128Y-48955477D01*
X78709605Y-49700000D01*
X79454128Y-50444523D01*
X79688305Y-50384577D01*
X79752758Y-50246097D01*
X79799084Y-50357938D01*
X79951093Y-50585436D01*
X80115657Y-50750000D01*
X79951093Y-50914564D01*
X79799084Y-51142062D01*
X79780000Y-51188135D01*
X79760916Y-51142062D01*
X79608907Y-50914564D01*
X79415436Y-50721093D01*
X79273909Y-50626528D01*
X79274523Y-50624128D01*
X78530000Y-49879605D01*
X77785477Y-50624128D01*
X77786091Y-50626528D01*
X77644564Y-50721093D01*
X77451093Y-50914564D01*
X77299084Y-51142062D01*
X77194378Y-51394844D01*
X77141000Y-51663195D01*
X77141000Y-51936805D01*
X77194378Y-52205156D01*
X77299084Y-52457938D01*
X77451093Y-52685436D01*
X77644564Y-52878907D01*
X77872062Y-53030916D01*
X78124844Y-53135622D01*
X78393195Y-53189000D01*
X78666805Y-53189000D01*
X78935156Y-53135622D01*
X79187938Y-53030916D01*
X79415436Y-52878907D01*
X79608907Y-52685436D01*
X79760916Y-52457938D01*
X79780000Y-52411865D01*
X79799084Y-52457938D01*
X79951093Y-52685436D01*
X80144564Y-52878907D01*
X80372062Y-53030916D01*
X80624844Y-53135622D01*
X80893195Y-53189000D01*
X81166805Y-53189000D01*
X81435156Y-53135622D01*
X81687938Y-53030916D01*
X81915436Y-52878907D01*
X81991520Y-52802823D01*
X82060344Y-52923000D01*
X82294950Y-52923000D01*
X82294950Y-53177000D01*
X82060344Y-53177000D01*
X81937682Y-53391185D01*
X81951827Y-53462684D01*
X82057858Y-53713868D01*
X82210855Y-53939540D01*
X82303293Y-54030742D01*
X82140143Y-54189748D01*
X81974709Y-54430574D01*
X81859437Y-54699047D01*
X81838524Y-54793110D01*
X81959845Y-55023000D01*
X83903000Y-55023000D01*
X83903000Y-55003000D01*
X84157000Y-55003000D01*
X84157000Y-55023000D01*
X86100155Y-55023000D01*
X86221476Y-54793110D01*
X86200563Y-54699047D01*
X86085291Y-54430574D01*
X85919857Y-54189748D01*
X85756707Y-54030742D01*
X85849145Y-53939540D01*
X86002142Y-53713868D01*
X86108173Y-53462684D01*
X86122318Y-53391185D01*
X85999656Y-53177000D01*
X85765050Y-53177000D01*
X85765050Y-52923000D01*
X85999656Y-52923000D01*
X86122318Y-52708815D01*
X86108173Y-52637316D01*
X86002142Y-52386132D01*
X85849145Y-52160460D01*
X85655061Y-51968972D01*
X85427349Y-51819028D01*
X85174760Y-51716389D01*
X84907000Y-51665000D01*
X84157000Y-51665000D01*
X84157000Y-52064950D01*
X83903000Y-52064950D01*
X83903000Y-51665000D01*
X83153000Y-51665000D01*
X82885240Y-51716389D01*
X82632651Y-51819028D01*
X82413757Y-51963166D01*
X82419000Y-51936805D01*
X82419000Y-51663195D01*
X82365622Y-51394844D01*
X82260916Y-51142062D01*
X82108907Y-50914564D01*
X81944343Y-50750000D01*
X82108907Y-50585436D01*
X82260916Y-50357938D01*
X82365622Y-50105156D01*
X82419000Y-49836805D01*
X82419000Y-49563195D01*
X82365622Y-49294844D01*
X82260916Y-49042062D01*
X82108907Y-48814564D01*
X81915436Y-48621093D01*
X81722342Y-48492072D01*
X81784000Y-48492072D01*
X81908482Y-48479812D01*
X82028180Y-48443502D01*
X82138494Y-48384537D01*
X82235185Y-48305185D01*
X82314537Y-48208494D01*
X82373502Y-48098180D01*
X82409812Y-47978482D01*
X82422072Y-47854000D01*
X82422072Y-47123000D01*
X83345000Y-47123000D01*
X83345000Y-48273000D01*
X83648843Y-48273000D01*
X83748972Y-48425061D01*
X83849547Y-48527000D01*
X83345000Y-48527000D01*
X83345000Y-49677000D01*
X83398310Y-49964269D01*
X83506639Y-50235618D01*
X83665824Y-50480619D01*
X83869748Y-50689857D01*
X84110574Y-50855291D01*
X84379047Y-50970563D01*
X84473110Y-50991476D01*
X84703000Y-50870155D01*
X84703000Y-48253000D01*
X84957000Y-48253000D01*
X84957000Y-50870155D01*
X85186890Y-50991476D01*
X85280953Y-50970563D01*
X85549426Y-50855291D01*
X85790252Y-50689857D01*
X85994176Y-50480619D01*
X86153361Y-50235618D01*
X86261690Y-49964269D01*
X86315000Y-49677000D01*
X86315000Y-48527000D01*
X85810453Y-48527000D01*
X85911028Y-48425061D01*
X86011157Y-48273000D01*
X86315000Y-48273000D01*
X86315000Y-47123000D01*
X86261690Y-46835731D01*
X86215000Y-46718779D01*
X86215000Y-46427000D01*
X86064100Y-46427000D01*
X85994176Y-46319381D01*
X85851513Y-46173000D01*
X86215000Y-46173000D01*
X86215000Y-44923000D01*
X86163611Y-44655240D01*
X86060972Y-44402651D01*
X85911028Y-44174939D01*
X85719540Y-43980855D01*
X85493868Y-43827858D01*
X85242684Y-43721827D01*
X85171185Y-43707682D01*
X84957000Y-43830344D01*
X84957000Y-44564950D01*
X84703000Y-44564950D01*
X84703000Y-43830344D01*
X84488815Y-43707682D01*
X84417316Y-43721827D01*
X84166132Y-43827858D01*
X83940460Y-43980855D01*
X83748972Y-44174939D01*
X83599028Y-44402651D01*
X83496389Y-44655240D01*
X83445000Y-44923000D01*
X83445000Y-46173000D01*
X83808487Y-46173000D01*
X83665824Y-46319381D01*
X83595900Y-46427000D01*
X83445000Y-46427000D01*
X83445000Y-46718779D01*
X83398310Y-46835731D01*
X83345000Y-47123000D01*
X82422072Y-47123000D01*
X82422072Y-46346000D01*
X82409812Y-46221518D01*
X82373502Y-46101820D01*
X82314537Y-45991506D01*
X82235185Y-45894815D01*
X82138494Y-45815463D01*
X82044436Y-45765187D01*
X82229127Y-45714235D01*
X82345426Y-45466574D01*
X82411174Y-45200982D01*
X82423845Y-44927666D01*
X82382951Y-44657130D01*
X82290063Y-44399771D01*
X82229127Y-44285765D01*
X81989853Y-44219755D01*
X82059657Y-44149951D01*
X82088494Y-44134537D01*
X82185185Y-44055185D01*
X82264537Y-43958494D01*
X82323502Y-43848180D01*
X82359812Y-43728482D01*
X82372072Y-43604000D01*
X82372072Y-42828919D01*
X82594382Y-42973361D01*
X82865731Y-43081690D01*
X83153000Y-43135000D01*
X83903000Y-43135000D01*
X83903000Y-41777000D01*
X84157000Y-41777000D01*
X84157000Y-43135000D01*
X84907000Y-43135000D01*
X85194269Y-43081690D01*
X85465618Y-42973361D01*
X85710619Y-42814176D01*
X85919857Y-42610252D01*
X86085291Y-42369426D01*
X86200563Y-42100953D01*
X86221476Y-42006890D01*
X86100155Y-41777000D01*
X84157000Y-41777000D01*
X83903000Y-41777000D01*
X83883000Y-41777000D01*
X83883000Y-41523000D01*
X83903000Y-41523000D01*
X83903000Y-41503000D01*
X84157000Y-41503000D01*
X84157000Y-41523000D01*
X86100155Y-41523000D01*
X86221476Y-41293110D01*
X86200563Y-41199047D01*
X86085291Y-40930574D01*
X85919857Y-40689748D01*
X85756707Y-40530742D01*
X85849145Y-40439540D01*
X86002142Y-40213868D01*
X86108173Y-39962684D01*
X86122318Y-39891185D01*
X85999656Y-39677000D01*
X85765050Y-39677000D01*
X85765050Y-39423000D01*
X85999656Y-39423000D01*
X86122318Y-39208815D01*
X86108902Y-39141000D01*
X88840000Y-39141000D01*
X88840001Y-55728000D01*
X86146014Y-55728000D01*
X86200563Y-55600953D01*
X86221476Y-55506890D01*
X86100155Y-55277000D01*
X84157000Y-55277000D01*
X84157000Y-55297000D01*
X83903000Y-55297000D01*
X83903000Y-55277000D01*
X81959845Y-55277000D01*
X81838524Y-55506890D01*
X81859437Y-55600953D01*
X81913986Y-55728000D01*
X74803489Y-55728000D01*
X74807680Y-55721727D01*
X74915853Y-55460574D01*
X74971000Y-55183335D01*
X74971000Y-54900665D01*
X74915853Y-54623426D01*
X74807680Y-54362273D01*
X74650637Y-54127241D01*
X74450759Y-53927363D01*
X74215727Y-53770320D01*
X73954574Y-53662147D01*
X73677335Y-53607000D01*
X73394665Y-53607000D01*
X73117426Y-53662147D01*
X72856273Y-53770320D01*
X72621241Y-53927363D01*
X72421363Y-54127241D01*
X72266000Y-54359759D01*
X72110637Y-54127241D01*
X71910759Y-53927363D01*
X71675727Y-53770320D01*
X71414574Y-53662147D01*
X71137335Y-53607000D01*
X70854665Y-53607000D01*
X70577426Y-53662147D01*
X70316273Y-53770320D01*
X70081241Y-53927363D01*
X69881363Y-54127241D01*
X69726000Y-54359759D01*
X69570637Y-54127241D01*
X69370759Y-53927363D01*
X69135727Y-53770320D01*
X68874574Y-53662147D01*
X68597335Y-53607000D01*
X68314665Y-53607000D01*
X68037426Y-53662147D01*
X67776273Y-53770320D01*
X67541241Y-53927363D01*
X67341363Y-54127241D01*
X67186000Y-54359759D01*
X67030637Y-54127241D01*
X66830759Y-53927363D01*
X66595727Y-53770320D01*
X66334574Y-53662147D01*
X66057335Y-53607000D01*
X65774665Y-53607000D01*
X65497426Y-53662147D01*
X65236273Y-53770320D01*
X65001241Y-53927363D01*
X64801363Y-54127241D01*
X64646000Y-54359759D01*
X64490637Y-54127241D01*
X64290759Y-53927363D01*
X64055727Y-53770320D01*
X63794574Y-53662147D01*
X63517335Y-53607000D01*
X63234665Y-53607000D01*
X62957426Y-53662147D01*
X62696273Y-53770320D01*
X62461241Y-53927363D01*
X62261363Y-54127241D01*
X62106000Y-54359759D01*
X61950637Y-54127241D01*
X61750759Y-53927363D01*
X61515727Y-53770320D01*
X61254574Y-53662147D01*
X60977335Y-53607000D01*
X60694665Y-53607000D01*
X60417426Y-53662147D01*
X60156273Y-53770320D01*
X59921241Y-53927363D01*
X59721363Y-54127241D01*
X59566000Y-54359759D01*
X59410637Y-54127241D01*
X59210759Y-53927363D01*
X58975727Y-53770320D01*
X58714574Y-53662147D01*
X58437335Y-53607000D01*
X58154665Y-53607000D01*
X57877426Y-53662147D01*
X57616273Y-53770320D01*
X57381241Y-53927363D01*
X57181363Y-54127241D01*
X57026000Y-54359759D01*
X56870637Y-54127241D01*
X56670759Y-53927363D01*
X56435727Y-53770320D01*
X56174574Y-53662147D01*
X55897335Y-53607000D01*
X55614665Y-53607000D01*
X55337426Y-53662147D01*
X55076273Y-53770320D01*
X54841241Y-53927363D01*
X54641363Y-54127241D01*
X54486000Y-54359759D01*
X54330637Y-54127241D01*
X54130759Y-53927363D01*
X53895727Y-53770320D01*
X53634574Y-53662147D01*
X53357335Y-53607000D01*
X53074665Y-53607000D01*
X52797426Y-53662147D01*
X52536273Y-53770320D01*
X52301241Y-53927363D01*
X52101363Y-54127241D01*
X51946000Y-54359759D01*
X51790637Y-54127241D01*
X51590759Y-53927363D01*
X51355727Y-53770320D01*
X51094574Y-53662147D01*
X50817335Y-53607000D01*
X50534665Y-53607000D01*
X50257426Y-53662147D01*
X49996273Y-53770320D01*
X49761241Y-53927363D01*
X49561363Y-54127241D01*
X49405085Y-54361128D01*
X49372671Y-54300486D01*
X49128702Y-54228903D01*
X48315605Y-55042000D01*
X48329748Y-55056143D01*
X48150143Y-55235748D01*
X48136000Y-55221605D01*
X48121858Y-55235748D01*
X47942253Y-55056143D01*
X47956395Y-55042000D01*
X47143298Y-54228903D01*
X46899329Y-54300486D01*
X46868806Y-54364992D01*
X46867680Y-54362273D01*
X46710637Y-54127241D01*
X46632694Y-54049298D01*
X47322903Y-54049298D01*
X48136000Y-54862395D01*
X48949097Y-54049298D01*
X48877514Y-53805329D01*
X48622004Y-53684429D01*
X48347816Y-53615700D01*
X48065488Y-53601783D01*
X47785870Y-53643213D01*
X47519708Y-53738397D01*
X47394486Y-53805329D01*
X47322903Y-54049298D01*
X46632694Y-54049298D01*
X46510759Y-53927363D01*
X46275727Y-53770320D01*
X46014574Y-53662147D01*
X45737335Y-53607000D01*
X45454665Y-53607000D01*
X45177426Y-53662147D01*
X45177000Y-53662323D01*
X45177000Y-49774314D01*
X77186575Y-49774314D01*
X77226886Y-50034976D01*
X77317276Y-50282764D01*
X77371695Y-50384577D01*
X77605872Y-50444523D01*
X78350395Y-49700000D01*
X77605872Y-48955477D01*
X77371695Y-49015423D01*
X77260398Y-49254551D01*
X77197891Y-49510797D01*
X77186575Y-49774314D01*
X45177000Y-49774314D01*
X45177000Y-48775872D01*
X77785477Y-48775872D01*
X78530000Y-49520395D01*
X79274523Y-48775872D01*
X79214577Y-48541695D01*
X78975449Y-48430398D01*
X78719203Y-48367891D01*
X78455686Y-48356575D01*
X78195024Y-48396886D01*
X77947236Y-48487276D01*
X77845423Y-48541695D01*
X77785477Y-48775872D01*
X45177000Y-48775872D01*
X45177000Y-41240072D01*
X46396000Y-41240072D01*
X46520482Y-41227812D01*
X46640180Y-41191502D01*
X46750494Y-41132537D01*
X46847185Y-41053185D01*
X46926537Y-40956494D01*
X46985502Y-40846180D01*
X47021812Y-40726482D01*
X47022643Y-40718039D01*
X47221241Y-40916637D01*
X47456273Y-41073680D01*
X47717426Y-41181853D01*
X47994665Y-41237000D01*
X48277335Y-41237000D01*
X48554574Y-41181853D01*
X48815727Y-41073680D01*
X49050759Y-40916637D01*
X49172694Y-40794702D01*
X49862903Y-40794702D01*
X49934486Y-41038671D01*
X50189996Y-41159571D01*
X50464184Y-41228300D01*
X50746512Y-41242217D01*
X51026130Y-41200787D01*
X51292292Y-41105603D01*
X51417514Y-41038671D01*
X51489097Y-40794702D01*
X52402903Y-40794702D01*
X52474486Y-41038671D01*
X52729996Y-41159571D01*
X53004184Y-41228300D01*
X53286512Y-41242217D01*
X53566130Y-41200787D01*
X53832292Y-41105603D01*
X53957514Y-41038671D01*
X54029097Y-40794702D01*
X53216000Y-39981605D01*
X52402903Y-40794702D01*
X51489097Y-40794702D01*
X50676000Y-39981605D01*
X49862903Y-40794702D01*
X49172694Y-40794702D01*
X49250637Y-40716759D01*
X49406915Y-40482872D01*
X49439329Y-40543514D01*
X49683298Y-40615097D01*
X50496395Y-39802000D01*
X50482253Y-39787858D01*
X50661858Y-39608253D01*
X50676000Y-39622395D01*
X50690143Y-39608253D01*
X50869748Y-39787858D01*
X50855605Y-39802000D01*
X51668702Y-40615097D01*
X51912671Y-40543514D01*
X51943971Y-40477364D01*
X51979329Y-40543514D01*
X52223298Y-40615097D01*
X53036395Y-39802000D01*
X53022253Y-39787858D01*
X53201858Y-39608253D01*
X53216000Y-39622395D01*
X53230143Y-39608253D01*
X53409748Y-39787858D01*
X53395605Y-39802000D01*
X54208702Y-40615097D01*
X54452671Y-40543514D01*
X54483194Y-40479008D01*
X54484320Y-40481727D01*
X54641363Y-40716759D01*
X54841241Y-40916637D01*
X54871000Y-40936521D01*
X54871001Y-46625500D01*
X54840226Y-46646063D01*
X54696063Y-46790226D01*
X54582795Y-46959744D01*
X54504774Y-47148102D01*
X54465000Y-47348061D01*
X54465000Y-47551939D01*
X54504774Y-47751898D01*
X54582795Y-47940256D01*
X54696063Y-48109774D01*
X54840226Y-48253937D01*
X55009744Y-48367205D01*
X55198102Y-48445226D01*
X55398061Y-48485000D01*
X55601939Y-48485000D01*
X55801898Y-48445226D01*
X55990256Y-48367205D01*
X56159774Y-48253937D01*
X56303937Y-48109774D01*
X56417205Y-47940256D01*
X56495226Y-47751898D01*
X56515341Y-47650772D01*
X56577589Y-47534313D01*
X56628195Y-47367490D01*
X56641000Y-47237477D01*
X56641000Y-47237469D01*
X56645281Y-47194000D01*
X56641000Y-47150531D01*
X56641000Y-40936521D01*
X56670759Y-40916637D01*
X56870637Y-40716759D01*
X57026000Y-40484241D01*
X57181363Y-40716759D01*
X57381241Y-40916637D01*
X57411000Y-40936521D01*
X57411001Y-46883344D01*
X57378795Y-46931544D01*
X57300774Y-47119902D01*
X57261000Y-47319861D01*
X57261000Y-47523739D01*
X57300774Y-47723698D01*
X57378795Y-47912056D01*
X57492063Y-48081574D01*
X57636226Y-48225737D01*
X57805744Y-48339005D01*
X57994102Y-48417026D01*
X58194061Y-48456800D01*
X58397939Y-48456800D01*
X58597898Y-48417026D01*
X58786256Y-48339005D01*
X58955774Y-48225737D01*
X59099937Y-48081574D01*
X59213205Y-47912056D01*
X59291226Y-47723698D01*
X59331000Y-47523739D01*
X59331000Y-47319861D01*
X59291226Y-47119902D01*
X59213205Y-46931544D01*
X59181000Y-46883346D01*
X59181000Y-40936521D01*
X59210759Y-40916637D01*
X59410637Y-40716759D01*
X59566000Y-40484241D01*
X59721363Y-40716759D01*
X59921241Y-40916637D01*
X60156273Y-41073680D01*
X60417426Y-41181853D01*
X60694665Y-41237000D01*
X60977335Y-41237000D01*
X61254574Y-41181853D01*
X61515727Y-41073680D01*
X61750759Y-40916637D01*
X61950637Y-40716759D01*
X62106000Y-40484241D01*
X62261363Y-40716759D01*
X62461241Y-40916637D01*
X62696273Y-41073680D01*
X62957426Y-41181853D01*
X63234665Y-41237000D01*
X63517335Y-41237000D01*
X63794574Y-41181853D01*
X64055727Y-41073680D01*
X64290759Y-40916637D01*
X64490637Y-40716759D01*
X64646000Y-40484241D01*
X64801363Y-40716759D01*
X65001241Y-40916637D01*
X65236273Y-41073680D01*
X65497426Y-41181853D01*
X65774665Y-41237000D01*
X66057335Y-41237000D01*
X66334574Y-41181853D01*
X66595727Y-41073680D01*
X66830759Y-40916637D01*
X67030637Y-40716759D01*
X67186000Y-40484241D01*
X67341363Y-40716759D01*
X67541241Y-40916637D01*
X67776273Y-41073680D01*
X68037426Y-41181853D01*
X68314665Y-41237000D01*
X68597335Y-41237000D01*
X68874574Y-41181853D01*
X69135727Y-41073680D01*
X69370759Y-40916637D01*
X69570637Y-40716759D01*
X69726000Y-40484241D01*
X69881363Y-40716759D01*
X70081241Y-40916637D01*
X70316273Y-41073680D01*
X70577426Y-41181853D01*
X70854665Y-41237000D01*
X71137335Y-41237000D01*
X71414574Y-41181853D01*
X71675727Y-41073680D01*
X71910759Y-40916637D01*
X72110637Y-40716759D01*
X72266000Y-40484241D01*
X72421363Y-40716759D01*
X72621241Y-40916637D01*
X72856273Y-41073680D01*
X73117426Y-41181853D01*
X73394665Y-41237000D01*
X73677335Y-41237000D01*
X73954574Y-41181853D01*
X74215727Y-41073680D01*
X74450759Y-40916637D01*
X74650637Y-40716759D01*
X74807680Y-40481727D01*
X74915853Y-40220574D01*
X74971000Y-39943335D01*
X74971000Y-39660665D01*
X74915853Y-39383426D01*
X74815437Y-39141000D01*
X81951098Y-39141000D01*
X81937682Y-39208815D01*
X81937682Y-39208815D01*
G37*
X81937682Y-39208815D02*
X82060344Y-39423000D01*
X82294950Y-39423000D01*
X82294950Y-39677000D01*
X82060344Y-39677000D01*
X81937682Y-39891185D01*
X81951827Y-39962684D01*
X82057858Y-40213868D01*
X82210855Y-40439540D01*
X82303293Y-40530742D01*
X82140143Y-40689748D01*
X81974709Y-40930574D01*
X81859437Y-41199047D01*
X81838524Y-41293110D01*
X81959844Y-41522998D01*
X81795000Y-41522998D01*
X81795000Y-41563936D01*
X81734000Y-41557928D01*
X80326000Y-41557928D01*
X80201518Y-41570188D01*
X80081820Y-41606498D01*
X79971506Y-41665463D01*
X79874815Y-41744815D01*
X79795463Y-41841506D01*
X79736498Y-41951820D01*
X79700188Y-42071518D01*
X79687928Y-42196000D01*
X79687928Y-42222825D01*
X79570069Y-42046437D01*
X79383563Y-41859931D01*
X79164254Y-41713393D01*
X78920572Y-41612457D01*
X78661880Y-41561000D01*
X78398120Y-41561000D01*
X78139428Y-41612457D01*
X77895746Y-41713393D01*
X77676437Y-41859931D01*
X77489931Y-42046437D01*
X77343393Y-42265746D01*
X77242457Y-42509428D01*
X77191000Y-42768120D01*
X77191000Y-43031880D01*
X77242457Y-43290572D01*
X77343393Y-43534254D01*
X77489931Y-43753563D01*
X77652295Y-43915927D01*
X77644564Y-43921093D01*
X77451093Y-44114564D01*
X77299084Y-44342062D01*
X77194378Y-44594844D01*
X77141000Y-44863195D01*
X77141000Y-45136805D01*
X77194378Y-45405156D01*
X77299084Y-45657938D01*
X77451093Y-45885436D01*
X77644564Y-46078907D01*
X77872062Y-46230916D01*
X78124844Y-46335622D01*
X78393195Y-46389000D01*
X78666805Y-46389000D01*
X78935156Y-46335622D01*
X79187938Y-46230916D01*
X79415436Y-46078907D01*
X79608907Y-45885436D01*
X79760916Y-45657938D01*
X79778322Y-45615916D01*
X79830873Y-45714235D01*
X80015564Y-45765187D01*
X79921506Y-45815463D01*
X79824815Y-45894815D01*
X79745463Y-45991506D01*
X79686498Y-46101820D01*
X79650188Y-46221518D01*
X79637928Y-46346000D01*
X79637928Y-47854000D01*
X79650188Y-47978482D01*
X79686498Y-48098180D01*
X79745463Y-48208494D01*
X79824815Y-48305185D01*
X79921506Y-48384537D01*
X80031820Y-48443502D01*
X80151518Y-48479812D01*
X80276000Y-48492072D01*
X80337658Y-48492072D01*
X80144564Y-48621093D01*
X79951093Y-48814564D01*
X79799084Y-49042062D01*
X79754535Y-49149613D01*
X79742724Y-49117236D01*
X79688305Y-49015423D01*
X79454128Y-48955477D01*
X78709605Y-49700000D01*
X79454128Y-50444523D01*
X79688305Y-50384577D01*
X79752758Y-50246097D01*
X79799084Y-50357938D01*
X79951093Y-50585436D01*
X80115657Y-50750000D01*
X79951093Y-50914564D01*
X79799084Y-51142062D01*
X79780000Y-51188135D01*
X79760916Y-51142062D01*
X79608907Y-50914564D01*
X79415436Y-50721093D01*
X79273909Y-50626528D01*
X79274523Y-50624128D01*
X78530000Y-49879605D01*
X77785477Y-50624128D01*
X77786091Y-50626528D01*
X77644564Y-50721093D01*
X77451093Y-50914564D01*
X77299084Y-51142062D01*
X77194378Y-51394844D01*
X77141000Y-51663195D01*
X77141000Y-51936805D01*
X77194378Y-52205156D01*
X77299084Y-52457938D01*
X77451093Y-52685436D01*
X77644564Y-52878907D01*
X77872062Y-53030916D01*
X78124844Y-53135622D01*
X78393195Y-53189000D01*
X78666805Y-53189000D01*
X78935156Y-53135622D01*
X79187938Y-53030916D01*
X79415436Y-52878907D01*
X79608907Y-52685436D01*
X79760916Y-52457938D01*
X79780000Y-52411865D01*
X79799084Y-52457938D01*
X79951093Y-52685436D01*
X80144564Y-52878907D01*
X80372062Y-53030916D01*
X80624844Y-53135622D01*
X80893195Y-53189000D01*
X81166805Y-53189000D01*
X81435156Y-53135622D01*
X81687938Y-53030916D01*
X81915436Y-52878907D01*
X81991520Y-52802823D01*
X82060344Y-52923000D01*
X82294950Y-52923000D01*
X82294950Y-53177000D01*
X82060344Y-53177000D01*
X81937682Y-53391185D01*
X81951827Y-53462684D01*
X82057858Y-53713868D01*
X82210855Y-53939540D01*
X82303293Y-54030742D01*
X82140143Y-54189748D01*
X81974709Y-54430574D01*
X81859437Y-54699047D01*
X81838524Y-54793110D01*
X81959845Y-55023000D01*
X83903000Y-55023000D01*
X83903000Y-55003000D01*
X84157000Y-55003000D01*
X84157000Y-55023000D01*
X86100155Y-55023000D01*
X86221476Y-54793110D01*
X86200563Y-54699047D01*
X86085291Y-54430574D01*
X85919857Y-54189748D01*
X85756707Y-54030742D01*
X85849145Y-53939540D01*
X86002142Y-53713868D01*
X86108173Y-53462684D01*
X86122318Y-53391185D01*
X85999656Y-53177000D01*
X85765050Y-53177000D01*
X85765050Y-52923000D01*
X85999656Y-52923000D01*
X86122318Y-52708815D01*
X86108173Y-52637316D01*
X86002142Y-52386132D01*
X85849145Y-52160460D01*
X85655061Y-51968972D01*
X85427349Y-51819028D01*
X85174760Y-51716389D01*
X84907000Y-51665000D01*
X84157000Y-51665000D01*
X84157000Y-52064950D01*
X83903000Y-52064950D01*
X83903000Y-51665000D01*
X83153000Y-51665000D01*
X82885240Y-51716389D01*
X82632651Y-51819028D01*
X82413757Y-51963166D01*
X82419000Y-51936805D01*
X82419000Y-51663195D01*
X82365622Y-51394844D01*
X82260916Y-51142062D01*
X82108907Y-50914564D01*
X81944343Y-50750000D01*
X82108907Y-50585436D01*
X82260916Y-50357938D01*
X82365622Y-50105156D01*
X82419000Y-49836805D01*
X82419000Y-49563195D01*
X82365622Y-49294844D01*
X82260916Y-49042062D01*
X82108907Y-48814564D01*
X81915436Y-48621093D01*
X81722342Y-48492072D01*
X81784000Y-48492072D01*
X81908482Y-48479812D01*
X82028180Y-48443502D01*
X82138494Y-48384537D01*
X82235185Y-48305185D01*
X82314537Y-48208494D01*
X82373502Y-48098180D01*
X82409812Y-47978482D01*
X82422072Y-47854000D01*
X82422072Y-47123000D01*
X83345000Y-47123000D01*
X83345000Y-48273000D01*
X83648843Y-48273000D01*
X83748972Y-48425061D01*
X83849547Y-48527000D01*
X83345000Y-48527000D01*
X83345000Y-49677000D01*
X83398310Y-49964269D01*
X83506639Y-50235618D01*
X83665824Y-50480619D01*
X83869748Y-50689857D01*
X84110574Y-50855291D01*
X84379047Y-50970563D01*
X84473110Y-50991476D01*
X84703000Y-50870155D01*
X84703000Y-48253000D01*
X84957000Y-48253000D01*
X84957000Y-50870155D01*
X85186890Y-50991476D01*
X85280953Y-50970563D01*
X85549426Y-50855291D01*
X85790252Y-50689857D01*
X85994176Y-50480619D01*
X86153361Y-50235618D01*
X86261690Y-49964269D01*
X86315000Y-49677000D01*
X86315000Y-48527000D01*
X85810453Y-48527000D01*
X85911028Y-48425061D01*
X86011157Y-48273000D01*
X86315000Y-48273000D01*
X86315000Y-47123000D01*
X86261690Y-46835731D01*
X86215000Y-46718779D01*
X86215000Y-46427000D01*
X86064100Y-46427000D01*
X85994176Y-46319381D01*
X85851513Y-46173000D01*
X86215000Y-46173000D01*
X86215000Y-44923000D01*
X86163611Y-44655240D01*
X86060972Y-44402651D01*
X85911028Y-44174939D01*
X85719540Y-43980855D01*
X85493868Y-43827858D01*
X85242684Y-43721827D01*
X85171185Y-43707682D01*
X84957000Y-43830344D01*
X84957000Y-44564950D01*
X84703000Y-44564950D01*
X84703000Y-43830344D01*
X84488815Y-43707682D01*
X84417316Y-43721827D01*
X84166132Y-43827858D01*
X83940460Y-43980855D01*
X83748972Y-44174939D01*
X83599028Y-44402651D01*
X83496389Y-44655240D01*
X83445000Y-44923000D01*
X83445000Y-46173000D01*
X83808487Y-46173000D01*
X83665824Y-46319381D01*
X83595900Y-46427000D01*
X83445000Y-46427000D01*
X83445000Y-46718779D01*
X83398310Y-46835731D01*
X83345000Y-47123000D01*
X82422072Y-47123000D01*
X82422072Y-46346000D01*
X82409812Y-46221518D01*
X82373502Y-46101820D01*
X82314537Y-45991506D01*
X82235185Y-45894815D01*
X82138494Y-45815463D01*
X82044436Y-45765187D01*
X82229127Y-45714235D01*
X82345426Y-45466574D01*
X82411174Y-45200982D01*
X82423845Y-44927666D01*
X82382951Y-44657130D01*
X82290063Y-44399771D01*
X82229127Y-44285765D01*
X81989853Y-44219755D01*
X82059657Y-44149951D01*
X82088494Y-44134537D01*
X82185185Y-44055185D01*
X82264537Y-43958494D01*
X82323502Y-43848180D01*
X82359812Y-43728482D01*
X82372072Y-43604000D01*
X82372072Y-42828919D01*
X82594382Y-42973361D01*
X82865731Y-43081690D01*
X83153000Y-43135000D01*
X83903000Y-43135000D01*
X83903000Y-41777000D01*
X84157000Y-41777000D01*
X84157000Y-43135000D01*
X84907000Y-43135000D01*
X85194269Y-43081690D01*
X85465618Y-42973361D01*
X85710619Y-42814176D01*
X85919857Y-42610252D01*
X86085291Y-42369426D01*
X86200563Y-42100953D01*
X86221476Y-42006890D01*
X86100155Y-41777000D01*
X84157000Y-41777000D01*
X83903000Y-41777000D01*
X83883000Y-41777000D01*
X83883000Y-41523000D01*
X83903000Y-41523000D01*
X83903000Y-41503000D01*
X84157000Y-41503000D01*
X84157000Y-41523000D01*
X86100155Y-41523000D01*
X86221476Y-41293110D01*
X86200563Y-41199047D01*
X86085291Y-40930574D01*
X85919857Y-40689748D01*
X85756707Y-40530742D01*
X85849145Y-40439540D01*
X86002142Y-40213868D01*
X86108173Y-39962684D01*
X86122318Y-39891185D01*
X85999656Y-39677000D01*
X85765050Y-39677000D01*
X85765050Y-39423000D01*
X85999656Y-39423000D01*
X86122318Y-39208815D01*
X86108902Y-39141000D01*
X88840000Y-39141000D01*
X88840001Y-55728000D01*
X86146014Y-55728000D01*
X86200563Y-55600953D01*
X86221476Y-55506890D01*
X86100155Y-55277000D01*
X84157000Y-55277000D01*
X84157000Y-55297000D01*
X83903000Y-55297000D01*
X83903000Y-55277000D01*
X81959845Y-55277000D01*
X81838524Y-55506890D01*
X81859437Y-55600953D01*
X81913986Y-55728000D01*
X74803489Y-55728000D01*
X74807680Y-55721727D01*
X74915853Y-55460574D01*
X74971000Y-55183335D01*
X74971000Y-54900665D01*
X74915853Y-54623426D01*
X74807680Y-54362273D01*
X74650637Y-54127241D01*
X74450759Y-53927363D01*
X74215727Y-53770320D01*
X73954574Y-53662147D01*
X73677335Y-53607000D01*
X73394665Y-53607000D01*
X73117426Y-53662147D01*
X72856273Y-53770320D01*
X72621241Y-53927363D01*
X72421363Y-54127241D01*
X72266000Y-54359759D01*
X72110637Y-54127241D01*
X71910759Y-53927363D01*
X71675727Y-53770320D01*
X71414574Y-53662147D01*
X71137335Y-53607000D01*
X70854665Y-53607000D01*
X70577426Y-53662147D01*
X70316273Y-53770320D01*
X70081241Y-53927363D01*
X69881363Y-54127241D01*
X69726000Y-54359759D01*
X69570637Y-54127241D01*
X69370759Y-53927363D01*
X69135727Y-53770320D01*
X68874574Y-53662147D01*
X68597335Y-53607000D01*
X68314665Y-53607000D01*
X68037426Y-53662147D01*
X67776273Y-53770320D01*
X67541241Y-53927363D01*
X67341363Y-54127241D01*
X67186000Y-54359759D01*
X67030637Y-54127241D01*
X66830759Y-53927363D01*
X66595727Y-53770320D01*
X66334574Y-53662147D01*
X66057335Y-53607000D01*
X65774665Y-53607000D01*
X65497426Y-53662147D01*
X65236273Y-53770320D01*
X65001241Y-53927363D01*
X64801363Y-54127241D01*
X64646000Y-54359759D01*
X64490637Y-54127241D01*
X64290759Y-53927363D01*
X64055727Y-53770320D01*
X63794574Y-53662147D01*
X63517335Y-53607000D01*
X63234665Y-53607000D01*
X62957426Y-53662147D01*
X62696273Y-53770320D01*
X62461241Y-53927363D01*
X62261363Y-54127241D01*
X62106000Y-54359759D01*
X61950637Y-54127241D01*
X61750759Y-53927363D01*
X61515727Y-53770320D01*
X61254574Y-53662147D01*
X60977335Y-53607000D01*
X60694665Y-53607000D01*
X60417426Y-53662147D01*
X60156273Y-53770320D01*
X59921241Y-53927363D01*
X59721363Y-54127241D01*
X59566000Y-54359759D01*
X59410637Y-54127241D01*
X59210759Y-53927363D01*
X58975727Y-53770320D01*
X58714574Y-53662147D01*
X58437335Y-53607000D01*
X58154665Y-53607000D01*
X57877426Y-53662147D01*
X57616273Y-53770320D01*
X57381241Y-53927363D01*
X57181363Y-54127241D01*
X57026000Y-54359759D01*
X56870637Y-54127241D01*
X56670759Y-53927363D01*
X56435727Y-53770320D01*
X56174574Y-53662147D01*
X55897335Y-53607000D01*
X55614665Y-53607000D01*
X55337426Y-53662147D01*
X55076273Y-53770320D01*
X54841241Y-53927363D01*
X54641363Y-54127241D01*
X54486000Y-54359759D01*
X54330637Y-54127241D01*
X54130759Y-53927363D01*
X53895727Y-53770320D01*
X53634574Y-53662147D01*
X53357335Y-53607000D01*
X53074665Y-53607000D01*
X52797426Y-53662147D01*
X52536273Y-53770320D01*
X52301241Y-53927363D01*
X52101363Y-54127241D01*
X51946000Y-54359759D01*
X51790637Y-54127241D01*
X51590759Y-53927363D01*
X51355727Y-53770320D01*
X51094574Y-53662147D01*
X50817335Y-53607000D01*
X50534665Y-53607000D01*
X50257426Y-53662147D01*
X49996273Y-53770320D01*
X49761241Y-53927363D01*
X49561363Y-54127241D01*
X49405085Y-54361128D01*
X49372671Y-54300486D01*
X49128702Y-54228903D01*
X48315605Y-55042000D01*
X48329748Y-55056143D01*
X48150143Y-55235748D01*
X48136000Y-55221605D01*
X48121858Y-55235748D01*
X47942253Y-55056143D01*
X47956395Y-55042000D01*
X47143298Y-54228903D01*
X46899329Y-54300486D01*
X46868806Y-54364992D01*
X46867680Y-54362273D01*
X46710637Y-54127241D01*
X46632694Y-54049298D01*
X47322903Y-54049298D01*
X48136000Y-54862395D01*
X48949097Y-54049298D01*
X48877514Y-53805329D01*
X48622004Y-53684429D01*
X48347816Y-53615700D01*
X48065488Y-53601783D01*
X47785870Y-53643213D01*
X47519708Y-53738397D01*
X47394486Y-53805329D01*
X47322903Y-54049298D01*
X46632694Y-54049298D01*
X46510759Y-53927363D01*
X46275727Y-53770320D01*
X46014574Y-53662147D01*
X45737335Y-53607000D01*
X45454665Y-53607000D01*
X45177426Y-53662147D01*
X45177000Y-53662323D01*
X45177000Y-49774314D01*
X77186575Y-49774314D01*
X77226886Y-50034976D01*
X77317276Y-50282764D01*
X77371695Y-50384577D01*
X77605872Y-50444523D01*
X78350395Y-49700000D01*
X77605872Y-48955477D01*
X77371695Y-49015423D01*
X77260398Y-49254551D01*
X77197891Y-49510797D01*
X77186575Y-49774314D01*
X45177000Y-49774314D01*
X45177000Y-48775872D01*
X77785477Y-48775872D01*
X78530000Y-49520395D01*
X79274523Y-48775872D01*
X79214577Y-48541695D01*
X78975449Y-48430398D01*
X78719203Y-48367891D01*
X78455686Y-48356575D01*
X78195024Y-48396886D01*
X77947236Y-48487276D01*
X77845423Y-48541695D01*
X77785477Y-48775872D01*
X45177000Y-48775872D01*
X45177000Y-41240072D01*
X46396000Y-41240072D01*
X46520482Y-41227812D01*
X46640180Y-41191502D01*
X46750494Y-41132537D01*
X46847185Y-41053185D01*
X46926537Y-40956494D01*
X46985502Y-40846180D01*
X47021812Y-40726482D01*
X47022643Y-40718039D01*
X47221241Y-40916637D01*
X47456273Y-41073680D01*
X47717426Y-41181853D01*
X47994665Y-41237000D01*
X48277335Y-41237000D01*
X48554574Y-41181853D01*
X48815727Y-41073680D01*
X49050759Y-40916637D01*
X49172694Y-40794702D01*
X49862903Y-40794702D01*
X49934486Y-41038671D01*
X50189996Y-41159571D01*
X50464184Y-41228300D01*
X50746512Y-41242217D01*
X51026130Y-41200787D01*
X51292292Y-41105603D01*
X51417514Y-41038671D01*
X51489097Y-40794702D01*
X52402903Y-40794702D01*
X52474486Y-41038671D01*
X52729996Y-41159571D01*
X53004184Y-41228300D01*
X53286512Y-41242217D01*
X53566130Y-41200787D01*
X53832292Y-41105603D01*
X53957514Y-41038671D01*
X54029097Y-40794702D01*
X53216000Y-39981605D01*
X52402903Y-40794702D01*
X51489097Y-40794702D01*
X50676000Y-39981605D01*
X49862903Y-40794702D01*
X49172694Y-40794702D01*
X49250637Y-40716759D01*
X49406915Y-40482872D01*
X49439329Y-40543514D01*
X49683298Y-40615097D01*
X50496395Y-39802000D01*
X50482253Y-39787858D01*
X50661858Y-39608253D01*
X50676000Y-39622395D01*
X50690143Y-39608253D01*
X50869748Y-39787858D01*
X50855605Y-39802000D01*
X51668702Y-40615097D01*
X51912671Y-40543514D01*
X51943971Y-40477364D01*
X51979329Y-40543514D01*
X52223298Y-40615097D01*
X53036395Y-39802000D01*
X53022253Y-39787858D01*
X53201858Y-39608253D01*
X53216000Y-39622395D01*
X53230143Y-39608253D01*
X53409748Y-39787858D01*
X53395605Y-39802000D01*
X54208702Y-40615097D01*
X54452671Y-40543514D01*
X54483194Y-40479008D01*
X54484320Y-40481727D01*
X54641363Y-40716759D01*
X54841241Y-40916637D01*
X54871000Y-40936521D01*
X54871001Y-46625500D01*
X54840226Y-46646063D01*
X54696063Y-46790226D01*
X54582795Y-46959744D01*
X54504774Y-47148102D01*
X54465000Y-47348061D01*
X54465000Y-47551939D01*
X54504774Y-47751898D01*
X54582795Y-47940256D01*
X54696063Y-48109774D01*
X54840226Y-48253937D01*
X55009744Y-48367205D01*
X55198102Y-48445226D01*
X55398061Y-48485000D01*
X55601939Y-48485000D01*
X55801898Y-48445226D01*
X55990256Y-48367205D01*
X56159774Y-48253937D01*
X56303937Y-48109774D01*
X56417205Y-47940256D01*
X56495226Y-47751898D01*
X56515341Y-47650772D01*
X56577589Y-47534313D01*
X56628195Y-47367490D01*
X56641000Y-47237477D01*
X56641000Y-47237469D01*
X56645281Y-47194000D01*
X56641000Y-47150531D01*
X56641000Y-40936521D01*
X56670759Y-40916637D01*
X56870637Y-40716759D01*
X57026000Y-40484241D01*
X57181363Y-40716759D01*
X57381241Y-40916637D01*
X57411000Y-40936521D01*
X57411001Y-46883344D01*
X57378795Y-46931544D01*
X57300774Y-47119902D01*
X57261000Y-47319861D01*
X57261000Y-47523739D01*
X57300774Y-47723698D01*
X57378795Y-47912056D01*
X57492063Y-48081574D01*
X57636226Y-48225737D01*
X57805744Y-48339005D01*
X57994102Y-48417026D01*
X58194061Y-48456800D01*
X58397939Y-48456800D01*
X58597898Y-48417026D01*
X58786256Y-48339005D01*
X58955774Y-48225737D01*
X59099937Y-48081574D01*
X59213205Y-47912056D01*
X59291226Y-47723698D01*
X59331000Y-47523739D01*
X59331000Y-47319861D01*
X59291226Y-47119902D01*
X59213205Y-46931544D01*
X59181000Y-46883346D01*
X59181000Y-40936521D01*
X59210759Y-40916637D01*
X59410637Y-40716759D01*
X59566000Y-40484241D01*
X59721363Y-40716759D01*
X59921241Y-40916637D01*
X60156273Y-41073680D01*
X60417426Y-41181853D01*
X60694665Y-41237000D01*
X60977335Y-41237000D01*
X61254574Y-41181853D01*
X61515727Y-41073680D01*
X61750759Y-40916637D01*
X61950637Y-40716759D01*
X62106000Y-40484241D01*
X62261363Y-40716759D01*
X62461241Y-40916637D01*
X62696273Y-41073680D01*
X62957426Y-41181853D01*
X63234665Y-41237000D01*
X63517335Y-41237000D01*
X63794574Y-41181853D01*
X64055727Y-41073680D01*
X64290759Y-40916637D01*
X64490637Y-40716759D01*
X64646000Y-40484241D01*
X64801363Y-40716759D01*
X65001241Y-40916637D01*
X65236273Y-41073680D01*
X65497426Y-41181853D01*
X65774665Y-41237000D01*
X66057335Y-41237000D01*
X66334574Y-41181853D01*
X66595727Y-41073680D01*
X66830759Y-40916637D01*
X67030637Y-40716759D01*
X67186000Y-40484241D01*
X67341363Y-40716759D01*
X67541241Y-40916637D01*
X67776273Y-41073680D01*
X68037426Y-41181853D01*
X68314665Y-41237000D01*
X68597335Y-41237000D01*
X68874574Y-41181853D01*
X69135727Y-41073680D01*
X69370759Y-40916637D01*
X69570637Y-40716759D01*
X69726000Y-40484241D01*
X69881363Y-40716759D01*
X70081241Y-40916637D01*
X70316273Y-41073680D01*
X70577426Y-41181853D01*
X70854665Y-41237000D01*
X71137335Y-41237000D01*
X71414574Y-41181853D01*
X71675727Y-41073680D01*
X71910759Y-40916637D01*
X72110637Y-40716759D01*
X72266000Y-40484241D01*
X72421363Y-40716759D01*
X72621241Y-40916637D01*
X72856273Y-41073680D01*
X73117426Y-41181853D01*
X73394665Y-41237000D01*
X73677335Y-41237000D01*
X73954574Y-41181853D01*
X74215727Y-41073680D01*
X74450759Y-40916637D01*
X74650637Y-40716759D01*
X74807680Y-40481727D01*
X74915853Y-40220574D01*
X74971000Y-39943335D01*
X74971000Y-39660665D01*
X74915853Y-39383426D01*
X74815437Y-39141000D01*
X81951098Y-39141000D01*
X81937682Y-39208815D01*
G36*
X81223748Y-44985858D02*
G01*
X81209605Y-45000000D01*
X81223748Y-45014143D01*
X81044143Y-45193748D01*
X81030000Y-45179605D01*
X81015858Y-45193748D01*
X80836253Y-45014143D01*
X80850395Y-45000000D01*
X80836253Y-44985858D01*
X81015858Y-44806253D01*
X81030000Y-44820395D01*
X81044143Y-44806253D01*
X81223748Y-44985858D01*
X81223748Y-44985858D01*
G37*
X81223748Y-44985858D02*
X81209605Y-45000000D01*
X81223748Y-45014143D01*
X81044143Y-45193748D01*
X81030000Y-45179605D01*
X81015858Y-45193748D01*
X80836253Y-45014143D01*
X80850395Y-45000000D01*
X80836253Y-44985858D01*
X81015858Y-44806253D01*
X81030000Y-44820395D01*
X81044143Y-44806253D01*
X81223748Y-44985858D01*
M02*
