M48
; DRILL file {KiCad (5.1.0-0)} date Monday, 25 March 2019 at 02.14.52
; FORMAT={-:-/ absolute / metric / decimal}
; #@! TF.CreationDate,2019-03-25T02:14:52+01:00
; #@! TF.GenerationSoftware,Kicad,Pcbnew,(5.1.0-0)
; #@! TF.FileFunction,Plated,1,2,PTH
FMAT,2
METRIC
T1C0.400
T2C0.700
T3C0.900
T4C1.000
T5C1.100
%
G90
G05
T1
X55.5Y-47.45
X58.296Y-47.422
T3
X78.53Y-42.9
X78.53Y-49.7
X81.03Y-42.9
X81.03Y-49.7
T4
X78.53Y-45.0
X78.53Y-51.8
X81.03Y-45.0
X81.03Y-47.1
X81.03Y-49.7
X81.03Y-51.8
T5
X45.596Y-39.802
X45.596Y-55.042
X48.136Y-39.802
X48.136Y-55.042
X50.676Y-39.802
X50.676Y-55.042
X53.216Y-39.802
X53.216Y-55.042
X55.756Y-39.802
X55.756Y-55.042
X58.296Y-39.802
X58.296Y-55.042
X60.836Y-39.802
X60.836Y-55.042
X63.376Y-39.802
X63.376Y-55.042
X65.916Y-39.802
X65.916Y-55.042
X68.456Y-39.802
X68.456Y-55.042
X70.996Y-39.802
X70.996Y-55.042
X73.536Y-39.802
X73.536Y-55.042
T2
G00X83.28Y-41.65
M15
G01X84.78Y-41.65
M16
G05
G00X83.28Y-55.15
M15
G01X84.78Y-55.15
M16
G05
G00X84.83Y-47.3
M15
G01X84.83Y-49.5
M16
G05
G00X83.28Y-39.55
M15
G01X84.78Y-39.55
M16
G05
G00X83.28Y-53.05
M15
G01X84.78Y-53.05
M16
G05
G00X84.83Y-45.25
M15
G01X84.83Y-47.35
M16
G05
T0
M30
