G04 #@! TF.GenerationSoftware,KiCad,Pcbnew,(5.1.0-0)*
G04 #@! TF.CreationDate,2019-03-25T02:14:44+01:00*
G04 #@! TF.ProjectId,adapter,61646170-7465-4722-9e6b-696361645f70,rev?*
G04 #@! TF.SameCoordinates,Original*
G04 #@! TF.FileFunction,Legend,Top*
G04 #@! TF.FilePolarity,Positive*
%FSLAX46Y46*%
G04 Gerber Fmt 4.6, Leading zero omitted, Abs format (unit mm)*
G04 Created by KiCad (PCBNEW (5.1.0-0)) date 2019-03-25 02:14:44*
%MOMM*%
%LPD*%
G04 APERTURE LIST*
%ADD10C,0.150000*%
%ADD11C,0.127000*%
%ADD12C,0.400000*%
%ADD13C,0.120000*%
%ADD14C,0.050000*%
G04 APERTURE END LIST*
D10*
X87247380Y-53106666D02*
X86247380Y-53106666D01*
X86961666Y-52773333D01*
X86247380Y-52440000D01*
X87247380Y-52440000D01*
X87247380Y-51820952D02*
X87199761Y-51916190D01*
X87152142Y-51963809D01*
X87056904Y-52011428D01*
X86771190Y-52011428D01*
X86675952Y-51963809D01*
X86628333Y-51916190D01*
X86580714Y-51820952D01*
X86580714Y-51678095D01*
X86628333Y-51582857D01*
X86675952Y-51535238D01*
X86771190Y-51487619D01*
X87056904Y-51487619D01*
X87152142Y-51535238D01*
X87199761Y-51582857D01*
X87247380Y-51678095D01*
X87247380Y-51820952D01*
X86580714Y-50630476D02*
X87247380Y-50630476D01*
X86580714Y-51059047D02*
X87104523Y-51059047D01*
X87199761Y-51011428D01*
X87247380Y-50916190D01*
X87247380Y-50773333D01*
X87199761Y-50678095D01*
X87152142Y-50630476D01*
X86580714Y-50154285D02*
X87247380Y-50154285D01*
X86675952Y-50154285D02*
X86628333Y-50106666D01*
X86580714Y-50011428D01*
X86580714Y-49868571D01*
X86628333Y-49773333D01*
X86723571Y-49725714D01*
X87247380Y-49725714D01*
X86580714Y-49392380D02*
X86580714Y-49011428D01*
X86247380Y-49249523D02*
X87104523Y-49249523D01*
X87199761Y-49201904D01*
X87247380Y-49106666D01*
X87247380Y-49011428D01*
X87247380Y-47916190D02*
X86247380Y-47916190D01*
X86961666Y-47582857D01*
X86247380Y-47249523D01*
X87247380Y-47249523D01*
X87247380Y-46773333D02*
X86580714Y-46773333D01*
X86247380Y-46773333D02*
X86295000Y-46820952D01*
X86342619Y-46773333D01*
X86295000Y-46725714D01*
X86247380Y-46773333D01*
X86342619Y-46773333D01*
X86580714Y-46297142D02*
X87247380Y-46297142D01*
X86675952Y-46297142D02*
X86628333Y-46249523D01*
X86580714Y-46154285D01*
X86580714Y-46011428D01*
X86628333Y-45916190D01*
X86723571Y-45868571D01*
X87247380Y-45868571D01*
X87247380Y-45392380D02*
X86580714Y-45392380D01*
X86247380Y-45392380D02*
X86295000Y-45440000D01*
X86342619Y-45392380D01*
X86295000Y-45344761D01*
X86247380Y-45392380D01*
X86342619Y-45392380D01*
X86866428Y-44916190D02*
X86866428Y-44154285D01*
X87247380Y-43678095D02*
X86247380Y-43678095D01*
X86247380Y-43440000D01*
X86295000Y-43297142D01*
X86390238Y-43201904D01*
X86485476Y-43154285D01*
X86675952Y-43106666D01*
X86818809Y-43106666D01*
X87009285Y-43154285D01*
X87104523Y-43201904D01*
X87199761Y-43297142D01*
X87247380Y-43440000D01*
X87247380Y-43678095D01*
X87247380Y-42678095D02*
X86580714Y-42678095D01*
X86247380Y-42678095D02*
X86295000Y-42725714D01*
X86342619Y-42678095D01*
X86295000Y-42630476D01*
X86247380Y-42678095D01*
X86342619Y-42678095D01*
X86580714Y-42201904D02*
X87247380Y-42201904D01*
X86675952Y-42201904D02*
X86628333Y-42154285D01*
X86580714Y-42059047D01*
X86580714Y-41916190D01*
X86628333Y-41820952D01*
X86723571Y-41773333D01*
X87247380Y-41773333D01*
X88230714Y-53773333D02*
X89230714Y-53773333D01*
X88278333Y-53773333D02*
X88230714Y-53678095D01*
X88230714Y-53487619D01*
X88278333Y-53392380D01*
X88325952Y-53344761D01*
X88421190Y-53297142D01*
X88706904Y-53297142D01*
X88802142Y-53344761D01*
X88849761Y-53392380D01*
X88897380Y-53487619D01*
X88897380Y-53678095D01*
X88849761Y-53773333D01*
X88897380Y-52725714D02*
X88849761Y-52820952D01*
X88754523Y-52868571D01*
X87897380Y-52868571D01*
X88230714Y-51916190D02*
X88897380Y-51916190D01*
X88230714Y-52344761D02*
X88754523Y-52344761D01*
X88849761Y-52297142D01*
X88897380Y-52201904D01*
X88897380Y-52059047D01*
X88849761Y-51963809D01*
X88802142Y-51916190D01*
X88230714Y-51011428D02*
X89040238Y-51011428D01*
X89135476Y-51059047D01*
X89183095Y-51106666D01*
X89230714Y-51201904D01*
X89230714Y-51344761D01*
X89183095Y-51440000D01*
X88849761Y-51011428D02*
X88897380Y-51106666D01*
X88897380Y-51297142D01*
X88849761Y-51392380D01*
X88802142Y-51440000D01*
X88706904Y-51487619D01*
X88421190Y-51487619D01*
X88325952Y-51440000D01*
X88278333Y-51392380D01*
X88230714Y-51297142D01*
X88230714Y-51106666D01*
X88278333Y-51011428D01*
X88230714Y-49916190D02*
X88230714Y-49535238D01*
X87897380Y-49773333D02*
X88754523Y-49773333D01*
X88849761Y-49725714D01*
X88897380Y-49630476D01*
X88897380Y-49535238D01*
X88897380Y-49201904D02*
X87897380Y-49201904D01*
X88897380Y-48773333D02*
X88373571Y-48773333D01*
X88278333Y-48820952D01*
X88230714Y-48916190D01*
X88230714Y-49059047D01*
X88278333Y-49154285D01*
X88325952Y-49201904D01*
X88897380Y-48297142D02*
X88230714Y-48297142D01*
X87897380Y-48297142D02*
X87945000Y-48344761D01*
X87992619Y-48297142D01*
X87945000Y-48249523D01*
X87897380Y-48297142D01*
X87992619Y-48297142D01*
X88849761Y-47868571D02*
X88897380Y-47773333D01*
X88897380Y-47582857D01*
X88849761Y-47487619D01*
X88754523Y-47440000D01*
X88706904Y-47440000D01*
X88611666Y-47487619D01*
X88564047Y-47582857D01*
X88564047Y-47725714D01*
X88516428Y-47820952D01*
X88421190Y-47868571D01*
X88373571Y-47868571D01*
X88278333Y-47820952D01*
X88230714Y-47725714D01*
X88230714Y-47582857D01*
X88278333Y-47487619D01*
X88897380Y-46106666D02*
X88849761Y-46201904D01*
X88802142Y-46249523D01*
X88706904Y-46297142D01*
X88421190Y-46297142D01*
X88325952Y-46249523D01*
X88278333Y-46201904D01*
X88230714Y-46106666D01*
X88230714Y-45963809D01*
X88278333Y-45868571D01*
X88325952Y-45820952D01*
X88421190Y-45773333D01*
X88706904Y-45773333D01*
X88802142Y-45820952D01*
X88849761Y-45868571D01*
X88897380Y-45963809D01*
X88897380Y-46106666D01*
X88230714Y-45344761D02*
X88897380Y-45344761D01*
X88325952Y-45344761D02*
X88278333Y-45297142D01*
X88230714Y-45201904D01*
X88230714Y-45059047D01*
X88278333Y-44963809D01*
X88373571Y-44916190D01*
X88897380Y-44916190D01*
X88849761Y-43725714D02*
X88897380Y-43630476D01*
X88897380Y-43440000D01*
X88849761Y-43344761D01*
X88754523Y-43297142D01*
X88706904Y-43297142D01*
X88611666Y-43344761D01*
X88564047Y-43440000D01*
X88564047Y-43582857D01*
X88516428Y-43678095D01*
X88421190Y-43725714D01*
X88373571Y-43725714D01*
X88278333Y-43678095D01*
X88230714Y-43582857D01*
X88230714Y-43440000D01*
X88278333Y-43344761D01*
X88897380Y-42868571D02*
X88230714Y-42868571D01*
X87897380Y-42868571D02*
X87945000Y-42916190D01*
X87992619Y-42868571D01*
X87945000Y-42820952D01*
X87897380Y-42868571D01*
X87992619Y-42868571D01*
X88897380Y-41963809D02*
X87897380Y-41963809D01*
X88849761Y-41963809D02*
X88897380Y-42059047D01*
X88897380Y-42249523D01*
X88849761Y-42344761D01*
X88802142Y-42392380D01*
X88706904Y-42440000D01*
X88421190Y-42440000D01*
X88325952Y-42392380D01*
X88278333Y-42344761D01*
X88230714Y-42249523D01*
X88230714Y-42059047D01*
X88278333Y-41963809D01*
X88849761Y-41106666D02*
X88897380Y-41201904D01*
X88897380Y-41392380D01*
X88849761Y-41487619D01*
X88754523Y-41535238D01*
X88373571Y-41535238D01*
X88278333Y-41487619D01*
X88230714Y-41392380D01*
X88230714Y-41201904D01*
X88278333Y-41106666D01*
X88373571Y-41059047D01*
X88468809Y-41059047D01*
X88564047Y-41535238D01*
X60592380Y-49997380D02*
X61163809Y-49997380D01*
X60878095Y-50997380D02*
X60878095Y-49997380D01*
X61497142Y-50997380D02*
X61497142Y-49997380D01*
X61925714Y-50997380D02*
X61925714Y-50473571D01*
X61878095Y-50378333D01*
X61782857Y-50330714D01*
X61640000Y-50330714D01*
X61544761Y-50378333D01*
X61497142Y-50425952D01*
X62401904Y-50997380D02*
X62401904Y-50330714D01*
X62401904Y-49997380D02*
X62354285Y-50045000D01*
X62401904Y-50092619D01*
X62449523Y-50045000D01*
X62401904Y-49997380D01*
X62401904Y-50092619D01*
X62830476Y-50949761D02*
X62925714Y-50997380D01*
X63116190Y-50997380D01*
X63211428Y-50949761D01*
X63259047Y-50854523D01*
X63259047Y-50806904D01*
X63211428Y-50711666D01*
X63116190Y-50664047D01*
X62973333Y-50664047D01*
X62878095Y-50616428D01*
X62830476Y-50521190D01*
X62830476Y-50473571D01*
X62878095Y-50378333D01*
X62973333Y-50330714D01*
X63116190Y-50330714D01*
X63211428Y-50378333D01*
X64401904Y-50949761D02*
X64497142Y-50997380D01*
X64687619Y-50997380D01*
X64782857Y-50949761D01*
X64830476Y-50854523D01*
X64830476Y-50806904D01*
X64782857Y-50711666D01*
X64687619Y-50664047D01*
X64544761Y-50664047D01*
X64449523Y-50616428D01*
X64401904Y-50521190D01*
X64401904Y-50473571D01*
X64449523Y-50378333D01*
X64544761Y-50330714D01*
X64687619Y-50330714D01*
X64782857Y-50378333D01*
X65259047Y-50997380D02*
X65259047Y-50330714D01*
X65259047Y-49997380D02*
X65211428Y-50045000D01*
X65259047Y-50092619D01*
X65306666Y-50045000D01*
X65259047Y-49997380D01*
X65259047Y-50092619D01*
X66163809Y-50997380D02*
X66163809Y-49997380D01*
X66163809Y-50949761D02*
X66068571Y-50997380D01*
X65878095Y-50997380D01*
X65782857Y-50949761D01*
X65735238Y-50902142D01*
X65687619Y-50806904D01*
X65687619Y-50521190D01*
X65735238Y-50425952D01*
X65782857Y-50378333D01*
X65878095Y-50330714D01*
X66068571Y-50330714D01*
X66163809Y-50378333D01*
X67020952Y-50949761D02*
X66925714Y-50997380D01*
X66735238Y-50997380D01*
X66640000Y-50949761D01*
X66592380Y-50854523D01*
X66592380Y-50473571D01*
X66640000Y-50378333D01*
X66735238Y-50330714D01*
X66925714Y-50330714D01*
X67020952Y-50378333D01*
X67068571Y-50473571D01*
X67068571Y-50568809D01*
X66592380Y-50664047D01*
X68116190Y-50330714D02*
X68497142Y-50330714D01*
X68259047Y-49997380D02*
X68259047Y-50854523D01*
X68306666Y-50949761D01*
X68401904Y-50997380D01*
X68497142Y-50997380D01*
X68973333Y-50997380D02*
X68878095Y-50949761D01*
X68830476Y-50902142D01*
X68782857Y-50806904D01*
X68782857Y-50521190D01*
X68830476Y-50425952D01*
X68878095Y-50378333D01*
X68973333Y-50330714D01*
X69116190Y-50330714D01*
X69211428Y-50378333D01*
X69259047Y-50425952D01*
X69306666Y-50521190D01*
X69306666Y-50806904D01*
X69259047Y-50902142D01*
X69211428Y-50949761D01*
X69116190Y-50997380D01*
X68973333Y-50997380D01*
X69640000Y-50330714D02*
X69830476Y-50997380D01*
X70020952Y-50521190D01*
X70211428Y-50997380D01*
X70401904Y-50330714D01*
X71211428Y-50997380D02*
X71211428Y-50473571D01*
X71163809Y-50378333D01*
X71068571Y-50330714D01*
X70878095Y-50330714D01*
X70782857Y-50378333D01*
X71211428Y-50949761D02*
X71116190Y-50997380D01*
X70878095Y-50997380D01*
X70782857Y-50949761D01*
X70735238Y-50854523D01*
X70735238Y-50759285D01*
X70782857Y-50664047D01*
X70878095Y-50616428D01*
X71116190Y-50616428D01*
X71211428Y-50568809D01*
X71687619Y-50997380D02*
X71687619Y-50330714D01*
X71687619Y-50521190D02*
X71735238Y-50425952D01*
X71782857Y-50378333D01*
X71878095Y-50330714D01*
X71973333Y-50330714D01*
X72735238Y-50997380D02*
X72735238Y-49997380D01*
X72735238Y-50949761D02*
X72640000Y-50997380D01*
X72449523Y-50997380D01*
X72354285Y-50949761D01*
X72306666Y-50902142D01*
X72259047Y-50806904D01*
X72259047Y-50521190D01*
X72306666Y-50425952D01*
X72354285Y-50378333D01*
X72449523Y-50330714D01*
X72640000Y-50330714D01*
X72735238Y-50378333D01*
X73163809Y-50949761D02*
X73259047Y-50997380D01*
X73449523Y-50997380D01*
X73544761Y-50949761D01*
X73592380Y-50854523D01*
X73592380Y-50806904D01*
X73544761Y-50711666D01*
X73449523Y-50664047D01*
X73306666Y-50664047D01*
X73211428Y-50616428D01*
X73163809Y-50521190D01*
X73163809Y-50473571D01*
X73211428Y-50378333D01*
X73306666Y-50330714D01*
X73449523Y-50330714D01*
X73544761Y-50378333D01*
X64116190Y-52647380D02*
X64116190Y-51647380D01*
X64497142Y-51647380D01*
X64592380Y-51695000D01*
X64640000Y-51742619D01*
X64687619Y-51837857D01*
X64687619Y-51980714D01*
X64640000Y-52075952D01*
X64592380Y-52123571D01*
X64497142Y-52171190D01*
X64116190Y-52171190D01*
X65116190Y-52647380D02*
X65116190Y-51980714D01*
X65116190Y-52171190D02*
X65163809Y-52075952D01*
X65211428Y-52028333D01*
X65306666Y-51980714D01*
X65401904Y-51980714D01*
X65878095Y-52647380D02*
X65782857Y-52599761D01*
X65735238Y-52552142D01*
X65687619Y-52456904D01*
X65687619Y-52171190D01*
X65735238Y-52075952D01*
X65782857Y-52028333D01*
X65878095Y-51980714D01*
X66020952Y-51980714D01*
X66116190Y-52028333D01*
X66163809Y-52075952D01*
X66211428Y-52171190D01*
X66211428Y-52456904D01*
X66163809Y-52552142D01*
X66116190Y-52599761D01*
X66020952Y-52647380D01*
X65878095Y-52647380D01*
X66640000Y-52647380D02*
X66640000Y-51647380D01*
X66973333Y-52361666D01*
X67306666Y-51647380D01*
X67306666Y-52647380D01*
X67782857Y-52647380D02*
X67782857Y-51980714D01*
X67782857Y-51647380D02*
X67735238Y-51695000D01*
X67782857Y-51742619D01*
X67830476Y-51695000D01*
X67782857Y-51647380D01*
X67782857Y-51742619D01*
X68687619Y-52599761D02*
X68592380Y-52647380D01*
X68401904Y-52647380D01*
X68306666Y-52599761D01*
X68259047Y-52552142D01*
X68211428Y-52456904D01*
X68211428Y-52171190D01*
X68259047Y-52075952D01*
X68306666Y-52028333D01*
X68401904Y-51980714D01*
X68592380Y-51980714D01*
X68687619Y-52028333D01*
X69116190Y-52647380D02*
X69116190Y-51980714D01*
X69116190Y-52171190D02*
X69163809Y-52075952D01*
X69211428Y-52028333D01*
X69306666Y-51980714D01*
X69401904Y-51980714D01*
X69878095Y-52647380D02*
X69782857Y-52599761D01*
X69735238Y-52552142D01*
X69687619Y-52456904D01*
X69687619Y-52171190D01*
X69735238Y-52075952D01*
X69782857Y-52028333D01*
X69878095Y-51980714D01*
X70020952Y-51980714D01*
X70116190Y-52028333D01*
X70163809Y-52075952D01*
X70211428Y-52171190D01*
X70211428Y-52456904D01*
X70163809Y-52552142D01*
X70116190Y-52599761D01*
X70020952Y-52647380D01*
X69878095Y-52647380D01*
X75761904Y-40341666D02*
X76238095Y-40341666D01*
X75666666Y-40627380D02*
X76000000Y-39627380D01*
X76333333Y-40627380D01*
X76666666Y-40627380D02*
X76666666Y-39627380D01*
X76904761Y-39627380D01*
X77047619Y-39675000D01*
X77142857Y-39770238D01*
X77190476Y-39865476D01*
X77238095Y-40055952D01*
X77238095Y-40198809D01*
X77190476Y-40389285D01*
X77142857Y-40484523D01*
X77047619Y-40579761D01*
X76904761Y-40627380D01*
X76666666Y-40627380D01*
X78000000Y-40103571D02*
X78142857Y-40151190D01*
X78190476Y-40198809D01*
X78238095Y-40294047D01*
X78238095Y-40436904D01*
X78190476Y-40532142D01*
X78142857Y-40579761D01*
X78047619Y-40627380D01*
X77666666Y-40627380D01*
X77666666Y-39627380D01*
X78000000Y-39627380D01*
X78095238Y-39675000D01*
X78142857Y-39722619D01*
X78190476Y-39817857D01*
X78190476Y-39913095D01*
X78142857Y-40008333D01*
X78095238Y-40055952D01*
X78000000Y-40103571D01*
X77666666Y-40103571D01*
X79809523Y-40627380D02*
X79809523Y-39865476D01*
X79619047Y-40055952D02*
X79809523Y-39865476D01*
X80000000Y-40055952D01*
X75586904Y-54977380D02*
X75586904Y-53977380D01*
X75967857Y-53977380D01*
X76063095Y-54025000D01*
X76110714Y-54072619D01*
X76158333Y-54167857D01*
X76158333Y-54310714D01*
X76110714Y-54405952D01*
X76063095Y-54453571D01*
X75967857Y-54501190D01*
X75586904Y-54501190D01*
X76539285Y-54929761D02*
X76682142Y-54977380D01*
X76920238Y-54977380D01*
X77015476Y-54929761D01*
X77063095Y-54882142D01*
X77110714Y-54786904D01*
X77110714Y-54691666D01*
X77063095Y-54596428D01*
X77015476Y-54548809D01*
X76920238Y-54501190D01*
X76729761Y-54453571D01*
X76634523Y-54405952D01*
X76586904Y-54358333D01*
X76539285Y-54263095D01*
X76539285Y-54167857D01*
X76586904Y-54072619D01*
X76634523Y-54025000D01*
X76729761Y-53977380D01*
X76967857Y-53977380D01*
X77110714Y-54025000D01*
X78253571Y-53929761D02*
X77396428Y-55215476D01*
X78539285Y-54072619D02*
X78586904Y-54025000D01*
X78682142Y-53977380D01*
X78920238Y-53977380D01*
X79015476Y-54025000D01*
X79063095Y-54072619D01*
X79110714Y-54167857D01*
X79110714Y-54263095D01*
X79063095Y-54405952D01*
X78491666Y-54977380D01*
X79110714Y-54977380D01*
X80682142Y-54215476D02*
X80682142Y-54977380D01*
X80872619Y-54786904D02*
X80682142Y-54977380D01*
X80491666Y-54786904D01*
X75600000Y-47000000D02*
X75000000Y-47400000D01*
X75000000Y-46600000D02*
X75000000Y-47400000D01*
X75600000Y-47000000D02*
X75000000Y-46600000D01*
D11*
X76330000Y-55450000D02*
X81291000Y-55450000D01*
X89530000Y-55450000D02*
X86475000Y-55450000D01*
X76330000Y-41350000D02*
X81291000Y-41350000D01*
X89530000Y-41350000D02*
X86475000Y-41350000D01*
X76330000Y-55450000D02*
X76330000Y-41350000D01*
X89530000Y-41350000D02*
X89530000Y-55450000D01*
X82280000Y-39250000D02*
X76330000Y-39250000D01*
X89530000Y-39250000D02*
X85830000Y-39250000D01*
X82280000Y-53350000D02*
X76330000Y-53350000D01*
X89530000Y-53350000D02*
X85830000Y-53350000D01*
X76330000Y-53350000D02*
X76330000Y-39250000D01*
X89530000Y-39250000D02*
X89530000Y-53350000D01*
D12*
X81200000Y-38500000D02*
G75*
G03X81200000Y-38500000I-200000J0D01*
G01*
D10*
X44326000Y-56312000D02*
X74806000Y-56312000D01*
X44326000Y-51232000D02*
X44326000Y-56312000D01*
X41786000Y-51232000D02*
X44326000Y-51232000D01*
X41786000Y-43612000D02*
X41786000Y-51232000D01*
X44326000Y-43612000D02*
X41786000Y-43612000D01*
X44326000Y-38532000D02*
X44326000Y-43612000D01*
X74806000Y-38532000D02*
X44326000Y-38532000D01*
X74806000Y-56312000D02*
X74806000Y-38532000D01*
D13*
X54590000Y-46897936D02*
X54590000Y-48102064D01*
X56410000Y-46897936D02*
X56410000Y-48102064D01*
X59206000Y-48102064D02*
X59206000Y-46897936D01*
X57386000Y-48102064D02*
X57386000Y-46897936D01*
D14*
X74436230Y-51969422D02*
X73434860Y-51969422D01*
X74150125Y-51635632D01*
X73434860Y-51301842D01*
X74436230Y-51301842D01*
X74436230Y-50825000D02*
X73768650Y-50825000D01*
X73434860Y-50825000D02*
X73482545Y-50872684D01*
X73530229Y-50825000D01*
X73482545Y-50777315D01*
X73434860Y-50825000D01*
X73530229Y-50825000D01*
X73768650Y-50348157D02*
X74436230Y-50348157D01*
X73864019Y-50348157D02*
X73816335Y-50300472D01*
X73768650Y-50205104D01*
X73768650Y-50062051D01*
X73816335Y-49966682D01*
X73911703Y-49918998D01*
X74436230Y-49918998D01*
X74436230Y-49442155D02*
X73768650Y-49442155D01*
X73434860Y-49442155D02*
X73482545Y-49489840D01*
X73530229Y-49442155D01*
X73482545Y-49394471D01*
X73434860Y-49442155D01*
X73530229Y-49442155D01*
X74054756Y-48965312D02*
X74054756Y-48202364D01*
X74436230Y-47725521D02*
X73434860Y-47725521D01*
X73434860Y-47487100D01*
X73482545Y-47344047D01*
X73577913Y-47248678D01*
X73673282Y-47200994D01*
X73864019Y-47153310D01*
X74007072Y-47153310D01*
X74197809Y-47200994D01*
X74293177Y-47248678D01*
X74388546Y-47344047D01*
X74436230Y-47487100D01*
X74436230Y-47725521D01*
X74436230Y-46724151D02*
X73434860Y-46724151D01*
X74436230Y-46247308D02*
X73434860Y-46247308D01*
X74436230Y-45675097D01*
X73434860Y-45675097D01*
X74054756Y-45198254D02*
X74054756Y-44435305D01*
X73434860Y-43529304D02*
X73434860Y-43720041D01*
X73482545Y-43815410D01*
X73530229Y-43863094D01*
X73673282Y-43958462D01*
X73864019Y-44006147D01*
X74245493Y-44006147D01*
X74340862Y-43958462D01*
X74388546Y-43910778D01*
X74436230Y-43815410D01*
X74436230Y-43624672D01*
X74388546Y-43529304D01*
X74340862Y-43481620D01*
X74245493Y-43433935D01*
X74007072Y-43433935D01*
X73911703Y-43481620D01*
X73864019Y-43529304D01*
X73816335Y-43624672D01*
X73816335Y-43815410D01*
X73864019Y-43910778D01*
X73911703Y-43958462D01*
X74007072Y-44006147D01*
X74531599Y-43243198D02*
X74531599Y-42480250D01*
X74388546Y-42289512D02*
X74436230Y-42146460D01*
X74436230Y-41908038D01*
X74388546Y-41812670D01*
X74340862Y-41764985D01*
X74245493Y-41717301D01*
X74150125Y-41717301D01*
X74054756Y-41764985D01*
X74007072Y-41812670D01*
X73959387Y-41908038D01*
X73911703Y-42098775D01*
X73864019Y-42194144D01*
X73816335Y-42241828D01*
X73720966Y-42289512D01*
X73625597Y-42289512D01*
X73530229Y-42241828D01*
X73482545Y-42194144D01*
X73434860Y-42098775D01*
X73434860Y-41860354D01*
X73482545Y-41717301D01*
X74436230Y-41288142D02*
X73434860Y-41288142D01*
X74436230Y-40858984D02*
X73911703Y-40858984D01*
X73816335Y-40906668D01*
X73768650Y-41002037D01*
X73768650Y-41145090D01*
X73816335Y-41240458D01*
X73864019Y-41288142D01*
X74436230Y-40382141D02*
X73768650Y-40382141D01*
X73434860Y-40382141D02*
X73482545Y-40429825D01*
X73530229Y-40382141D01*
X73482545Y-40334457D01*
X73434860Y-40382141D01*
X73530229Y-40382141D01*
X74388546Y-39523824D02*
X74436230Y-39619192D01*
X74436230Y-39809930D01*
X74388546Y-39905298D01*
X74293177Y-39952982D01*
X73911703Y-39952982D01*
X73816335Y-39905298D01*
X73768650Y-39809930D01*
X73768650Y-39619192D01*
X73816335Y-39523824D01*
X73911703Y-39476140D01*
X74007072Y-39476140D01*
X74102440Y-39952982D01*
X74436230Y-38903928D02*
X74388546Y-38999297D01*
X74293177Y-39046981D01*
X73434860Y-39046981D01*
X74436230Y-38093295D02*
X73434860Y-38093295D01*
X74388546Y-38093295D02*
X74436230Y-38188664D01*
X74436230Y-38379401D01*
X74388546Y-38474770D01*
X74340862Y-38522454D01*
X74245493Y-38570138D01*
X73959387Y-38570138D01*
X73864019Y-38522454D01*
X73816335Y-38474770D01*
X73768650Y-38379401D01*
X73768650Y-38188664D01*
X73816335Y-38093295D01*
X74388546Y-37234978D02*
X74436230Y-37330347D01*
X74436230Y-37521084D01*
X74388546Y-37616452D01*
X74293177Y-37664137D01*
X73911703Y-37664137D01*
X73816335Y-37616452D01*
X73768650Y-37521084D01*
X73768650Y-37330347D01*
X73816335Y-37234978D01*
X73911703Y-37187294D01*
X74007072Y-37187294D01*
X74102440Y-37664137D01*
X74436230Y-36328977D02*
X73434860Y-36328977D01*
X74388546Y-36328977D02*
X74436230Y-36424345D01*
X74436230Y-36615082D01*
X74388546Y-36710451D01*
X74340862Y-36758135D01*
X74245493Y-36805820D01*
X73959387Y-36805820D01*
X73864019Y-36758135D01*
X73816335Y-36710451D01*
X73768650Y-36615082D01*
X73768650Y-36424345D01*
X73816335Y-36328977D01*
X90163527Y-42081836D02*
X90878913Y-42081836D01*
X91021990Y-42129529D01*
X91117375Y-42224913D01*
X91165067Y-42367990D01*
X91165067Y-42463375D01*
X91165067Y-41080296D02*
X91165067Y-41652605D01*
X91165067Y-41366450D02*
X90163527Y-41366450D01*
X90306604Y-41461835D01*
X90401989Y-41557220D01*
X90449681Y-41652605D01*
X75699297Y-50203890D02*
X74698177Y-50203890D01*
X75413263Y-49870183D01*
X74698177Y-49536477D01*
X75699297Y-49536477D01*
X75699297Y-49059753D02*
X75031884Y-49059753D01*
X74698177Y-49059753D02*
X74745850Y-49107425D01*
X74793522Y-49059753D01*
X74745850Y-49012080D01*
X74698177Y-49059753D01*
X74793522Y-49059753D01*
X75031884Y-48583029D02*
X75699297Y-48583029D01*
X75127229Y-48583029D02*
X75079556Y-48535357D01*
X75031884Y-48440012D01*
X75031884Y-48296995D01*
X75079556Y-48201650D01*
X75174901Y-48153978D01*
X75699297Y-48153978D01*
X75699297Y-47677254D02*
X75031884Y-47677254D01*
X74698177Y-47677254D02*
X74745850Y-47724926D01*
X74793522Y-47677254D01*
X74745850Y-47629581D01*
X74698177Y-47677254D01*
X74793522Y-47677254D01*
X75317918Y-47200530D02*
X75317918Y-46437772D01*
X75699297Y-45961048D02*
X74698177Y-45961048D01*
X74698177Y-45722686D01*
X74745850Y-45579669D01*
X74841194Y-45484324D01*
X74936539Y-45436652D01*
X75127229Y-45388980D01*
X75270246Y-45388980D01*
X75460935Y-45436652D01*
X75556280Y-45484324D01*
X75651625Y-45579669D01*
X75699297Y-45722686D01*
X75699297Y-45961048D01*
X75699297Y-44959928D02*
X74698177Y-44959928D01*
X75699297Y-44483204D02*
X74698177Y-44483204D01*
X75699297Y-43911136D01*
X74698177Y-43911136D01*
X75317918Y-43434412D02*
X75317918Y-42671654D01*
X75031884Y-41765879D02*
X75699297Y-41765879D01*
X74650505Y-42004240D02*
X75365590Y-42242602D01*
X75365590Y-41622861D01*
X75794642Y-41479844D02*
X75794642Y-40717086D01*
X75651625Y-40526397D02*
X75699297Y-40383380D01*
X75699297Y-40145018D01*
X75651625Y-40049673D01*
X75603952Y-40002000D01*
X75508608Y-39954328D01*
X75413263Y-39954328D01*
X75317918Y-40002000D01*
X75270246Y-40049673D01*
X75222573Y-40145018D01*
X75174901Y-40335707D01*
X75127229Y-40431052D01*
X75079556Y-40478724D01*
X74984211Y-40526397D01*
X74888867Y-40526397D01*
X74793522Y-40478724D01*
X74745850Y-40431052D01*
X74698177Y-40335707D01*
X74698177Y-40097345D01*
X74745850Y-39954328D01*
X75699297Y-39525277D02*
X74698177Y-39525277D01*
X75699297Y-39096225D02*
X75174901Y-39096225D01*
X75079556Y-39143898D01*
X75031884Y-39239242D01*
X75031884Y-39382260D01*
X75079556Y-39477604D01*
X75127229Y-39525277D01*
X75699297Y-38619501D02*
X75031884Y-38619501D01*
X74698177Y-38619501D02*
X74745850Y-38667174D01*
X74793522Y-38619501D01*
X74745850Y-38571829D01*
X74698177Y-38619501D01*
X74793522Y-38619501D01*
X75651625Y-37761399D02*
X75699297Y-37856743D01*
X75699297Y-38047433D01*
X75651625Y-38142778D01*
X75556280Y-38190450D01*
X75174901Y-38190450D01*
X75079556Y-38142778D01*
X75031884Y-38047433D01*
X75031884Y-37856743D01*
X75079556Y-37761399D01*
X75174901Y-37713726D01*
X75270246Y-37713726D01*
X75365590Y-38190450D01*
X75699297Y-37141658D02*
X75651625Y-37237002D01*
X75556280Y-37284675D01*
X74698177Y-37284675D01*
X75699297Y-36331227D02*
X74698177Y-36331227D01*
X75651625Y-36331227D02*
X75699297Y-36426572D01*
X75699297Y-36617261D01*
X75651625Y-36712606D01*
X75603952Y-36760279D01*
X75508608Y-36807951D01*
X75222573Y-36807951D01*
X75127229Y-36760279D01*
X75079556Y-36712606D01*
X75031884Y-36617261D01*
X75031884Y-36426572D01*
X75079556Y-36331227D01*
X75651625Y-35473124D02*
X75699297Y-35568469D01*
X75699297Y-35759159D01*
X75651625Y-35854503D01*
X75556280Y-35902176D01*
X75174901Y-35902176D01*
X75079556Y-35854503D01*
X75031884Y-35759159D01*
X75031884Y-35568469D01*
X75079556Y-35473124D01*
X75174901Y-35425452D01*
X75270246Y-35425452D01*
X75365590Y-35902176D01*
X75699297Y-34567349D02*
X74698177Y-34567349D01*
X75651625Y-34567349D02*
X75699297Y-34662694D01*
X75699297Y-34853383D01*
X75651625Y-34948728D01*
X75603952Y-34996400D01*
X75508608Y-35044073D01*
X75222573Y-35044073D01*
X75127229Y-34996400D01*
X75079556Y-34948728D01*
X75031884Y-34853383D01*
X75031884Y-34662694D01*
X75079556Y-34567349D01*
D10*
X53952380Y-47666666D02*
X53476190Y-48000000D01*
X53952380Y-48238095D02*
X52952380Y-48238095D01*
X52952380Y-47857142D01*
X53000000Y-47761904D01*
X53047619Y-47714285D01*
X53142857Y-47666666D01*
X53285714Y-47666666D01*
X53380952Y-47714285D01*
X53428571Y-47761904D01*
X53476190Y-47857142D01*
X53476190Y-48238095D01*
X53047619Y-47285714D02*
X53000000Y-47238095D01*
X52952380Y-47142857D01*
X52952380Y-46904761D01*
X53000000Y-46809523D01*
X53047619Y-46761904D01*
X53142857Y-46714285D01*
X53238095Y-46714285D01*
X53380952Y-46761904D01*
X53952380Y-47333333D01*
X53952380Y-46714285D01*
X60952380Y-47666666D02*
X60476190Y-48000000D01*
X60952380Y-48238095D02*
X59952380Y-48238095D01*
X59952380Y-47857142D01*
X60000000Y-47761904D01*
X60047619Y-47714285D01*
X60142857Y-47666666D01*
X60285714Y-47666666D01*
X60380952Y-47714285D01*
X60428571Y-47761904D01*
X60476190Y-47857142D01*
X60476190Y-48238095D01*
X60952380Y-46714285D02*
X60952380Y-47285714D01*
X60952380Y-47000000D02*
X59952380Y-47000000D01*
X60095238Y-47095238D01*
X60190476Y-47190476D01*
X60238095Y-47285714D01*
M02*
